<?xml version="1.0" standalone="no"?>
<!DOCTYPE svg PUBLIC "-//W3C//DTD SVG 1.1//EN" "http://www.w3.org/Graphics/SVG/1.1/DTD/svg11.dtd" >
<svg xmlns="http://www.w3.org/2000/svg" xmlns:xlink="http://www.w3.org/1999/xlink" version="1.1">
<metadata>
Created by FontForge 20170731 at Wed Apr 14 14:54:47 1993
 By Aleksey,,,
This is a copyrighted typeface program
</metadata>
<defs>
<font id="Blizzard-Regular" horiz-adv-x="500" >
  <font-face 
    font-family="Blizzard"
    font-weight="400"
    font-stretch="normal"
    units-per-em="1000"
    panose-1="0 0 0 0 0 0 0 0 0 0"
    ascent="800"
    descent="-200"
    x-height="430"
    cap-height="688"
    bbox="-127 -250 871 869"
    underline-thickness="79"
    underline-position="-217"
    unicode-range="U+0020-F002"
  />
<missing-glyph horiz-adv-x="792" 
d="M49 0v792h694v-792h-694zM694 49v694h-596v-694h596z" />
    <glyph glyph-name=".notdef" horiz-adv-x="792" 
d="M49 0v792h694v-792h-694zM694 49v694h-596v-694h596z" />
    <glyph glyph-name=".null" horiz-adv-x="0" 
 />
    <glyph glyph-name="nonmarkingreturn" horiz-adv-x="300" 
 />
    <glyph glyph-name="space" unicode=" " horiz-adv-x="300" 
 />
    <glyph glyph-name="exclam" unicode="!" horiz-adv-x="307" 
d="M184 706q37 -14 61 -38q14 -11 14 -43q0 -66 -29 -219.5t-63 -267.5q-13 7 -22 14t-26.5 22.5t-20.5 21t-3 16.5q0 80 8.5 142.5t14.5 98.5q9 36 19.5 86t21.5 90t25 77zM128 107q21 0 35.5 -15.5t14.5 -38.5q0 -26 -17.5 -44.5t-40.5 -18.5q-21 0 -34 14t-13 37
q0 27 16 46.5t39 19.5z" />
    <glyph glyph-name="quotedbl" unicode="&#x22;" horiz-adv-x="402" 
d="M170 400h-94l38 267h142zM363 400h-94l38 267h141z" />
    <glyph glyph-name="numbersign" unicode="#" horiz-adv-x="632" 
d="M389 219l-67 -181h-62l67 181h-105l-68 -181h-62l67 181h-112l22 60h113l37 100h-112l22 61h112l62 166h62l-61 -166h105l62 166h62l-62 -166h119l-23 -61h-118l-37 -100h118l-22 -60h-119zM387 379h-106l-37 -100h105z" />
    <glyph glyph-name="dollar" unicode="$" 
d="M434 633v-21l1 -39q0 -24 -9 -74q-24 26 -65.5 41t-90.5 15l-11 1q-4 -12 -5 -19t-1 -19q0 -23 4.5 -37t29.5 -73t29 -67.5t42.5 -83t38.5 -114.5q0 -35 -22 -75.5t-44 -54t-53.5 -19.5t-66.5 -6l-28 3l-21 -75h-47l24 85l-8 5q-37 24 -46.5 41.5t-14.5 71.5l-2 21
q29 -19 67.5 -28t92.5 -9l33 2l2 19q0 11 -5.5 32t-12 36.5t-7.5 19t-20 42.5l-15 30l-15 31l-37 83q-23 51 -23 73q0 31 15.5 70.5t52 85.5t110.5 46h22l20 73h47l-23 -85q22 -6 34.5 -12t27.5 -16z" />
    <glyph glyph-name="percent" unicode="%" horiz-adv-x="520" 
d="M148 584q27 0 45 -29.5t18 -75.5q0 -63 -26 -107t-64 -44q-28 0 -47 29t-19 71q0 59 29 107.5t64 48.5zM148 542q-14 0 -32 -38t-18 -80q0 -59 22 -59q17 0 33 43.5t16 78.5q0 55 -21 55zM133 63l19 49l106 260q33 79 49 117.5t42 108.5q38 -32 38 -57q0 -22 -30 -109.5
t-60 -162.5t-70 -163.5t-48 -99.5t-21 -11q-14 0 -33 25l-7 7zM406 244q28 0 46.5 -29.5t18.5 -73.5q0 -63 -26.5 -107.5t-63.5 -44.5q-29 0 -47.5 27.5t-18.5 70.5q0 60 28 108.5t63 48.5zM407 203q-8 0 -20.5 -15.5t-21.5 -45.5t-9 -57q0 -58 22 -58q18 0 34 41.5t16 86.5
q0 48 -21 48z" />
    <glyph glyph-name="ampersand" unicode="&#x26;" horiz-adv-x="546" 
d="M390 32l-12 12q-95 -56 -188 -56q-72 0 -111 38t-39 107q0 62 35 116t108 104q-19 47 -19 99q0 71 43 129t97 58q46 0 77.5 -36.5t31.5 -89.5q0 -96 -108 -186q31 -52 53 -83.5t51 -64.5l66 39l24 15q-8 -34 -12 -44.5t-24 -53.5l-6 -12l25 -25l34 -33q-28 -55 -79 -76
q-16 11 -22 17t-25 26zM162 110v-14q35 0 64 6.5t85 28.5q-9 11 -17.5 23t-22.5 34l-41 63q-68 -52 -68 -141zM268 418q52 45 52 96q0 21 -7 34.5t-18 13.5q-14 0 -24 -24t-10 -58q0 -17 1 -24.5t6 -37.5z" />
    <glyph glyph-name="quotesingle" unicode="'" horiz-adv-x="224" 
d="M53 415l-8 1q20 24 28.5 39.5t12.5 32.5t9 28t9 41q9 48 14.5 59t14.5 17.5t17 6.5q12 0 20 -10t8 -25q0 -30 -9 -66t-23 -63t-36.5 -44.5t-41.5 -17.5z" />
    <glyph glyph-name="parenleft" unicode="(" horiz-adv-x="339" 
d="M189 -166q-69 9 -85 26.5t-20 30t-9 55t-5 134.5q0 87 10 166t43.5 207t65.5 182.5t60 92.5q36 -27 47 -39t26 -39l-44 -91q-105 -237 -105 -534q0 -114 16 -191z" />
    <glyph glyph-name="parenright" unicode=")" horiz-adv-x="319" 
d="M130 728q69 -8 85 -26t20 -30.5t9 -54.5t5 -134q0 -88 -10 -166.5t-43.5 -207t-92.5 -227.5l-32 -48q-34 25 -47.5 39.5t-26.5 38.5q40 81 56 119t39.5 114.5t38.5 179.5t15 212q0 114 -16 191z" />
    <glyph glyph-name="asterisk" unicode="*" horiz-adv-x="446" 
d="M217 608l5 14l26 60q11 20 20 20t26.5 -14.5t21.5 -20t4 -15.5q0 -12 -3 -33.5t-8 -44.5q34 11 58.5 17t37.5 6q22 0 22 -24q0 -15 -5 -29.5t-15 -21.5t-34 -19.5t-63 -30.5l46 -77q9 -17 16 -29.5t7 -17.5q0 -11 -13.5 -19t-33.5 -8q-15 0 -25 8t-56 58l-8 -20l-15 -39
q-7 -25 -13.5 -33.5t-17.5 -8.5q-13 0 -30 17t-17 34q0 29 13 84l-7 -2l-40 -11q-42 -11 -60 -11q-11 0 -14 7t-3 32q0 31 13.5 39.5t53.5 25.5t49 21q-62 105 -62 121q0 8 22.5 15.5t36.5 7.5q10 0 23.5 -12t41.5 -46z" />
    <glyph glyph-name="plus" unicode="+" 
d="M17 385h203v197h65v-197h204v-63h-204v-198h-65v198h-203v63z" />
    <glyph glyph-name="comma" unicode="," horiz-adv-x="237" 
d="M60 -2q7 26 9.5 40.5t4.5 34.5q0 15 23.5 23t45.5 8q34 0 34 -37q0 -62 -28 -102.5t-72 -40.5l-15 1q18 21 26 38t10 41l-23 -4l-9 -1z" />
    <glyph glyph-name="hyphen" unicode="-" horiz-adv-x="303" 
d="M267 324q-4 -31 -11 -53t-22.5 -45.5t-60.5 -23.5l-35 2l-51 3q-13 0 -22 -2.5t-30 -13.5q27 118 96 118l52 -3l18 -1q22 0 33 3t33 16z" />
    <glyph glyph-name="hyphen" unicode="&#xad;" horiz-adv-x="303" 
d="M267 324q-4 -31 -11 -53t-22.5 -45.5t-60.5 -23.5l-35 2l-51 3q-13 0 -22 -2.5t-30 -13.5q27 118 96 118l52 -3l18 -1q22 0 33 3t33 16z" />
    <glyph glyph-name="period" unicode="." horiz-adv-x="231" 
d="M113 97q54 0 54 -55q0 -27 -13.5 -42.5t-36.5 -15.5q-54 0 -54 53q0 60 50 60z" />
    <glyph glyph-name="slash" unicode="/" horiz-adv-x="304" 
d="M128 -153l-3 -13q-43 15 -55 28.5t-12 45.5q0 65 19 189l24 148q16 105 20.5 130t29.5 142t53 189q64 -38 64 -70l-5 -53q-8 -72 -13.5 -111t-19.5 -122l-44 -238l-27 -129l-25 -111l-3 -13z" />
    <glyph glyph-name="zero" unicode="0" 
d="M275 621q77 0 124 -68t47 -181q0 -140 -77 -264t-163 -124q-66 0 -112 70t-46 171q0 158 68 277t159 119zM289 526q-46 0 -90 -109t-44 -228q0 -44 13 -72.5t34 -28.5q47 0 92 103t45 211q0 124 -50 124z" />
    <glyph glyph-name="one" unicode="1" 
d="M347 410l-10 -65q-19 -119 -32.5 -181.5t-43.5 -175.5q-91 26 -91 77q0 19 4.5 47.5t14.5 86.5l24 134q8 48 18 88.5t16 65.5q-31 -34 -97 -67q-8 20 -13 43t-5 40q0 25 48 65t71 53.5t36 13.5q14 0 32.5 -11t33.5 -26t15 -29q0 -28 -10 -93z" />
    <glyph glyph-name="two" unicode="2" 
d="M268 136l-15 -22q17 -8 31 -16l28 -16l12 18q14 19 20 28.5t14 22.5q54 -18 54 -78q0 -44 -29.5 -71.5t-75.5 -27.5q-58 0 -140 48q-53 -35 -101 -35q-24 0 -24 52q0 26 3 58t8 41.5t47 9.5q18 0 45 -8q49 67 76.5 111.5t52 93t32.5 69.5t8 33q0 25 -27.5 44t-77.5 27
l1 -48l-2 -39q0 -31 -3 -36t-38.5 -24.5t-70.5 -24.5q-9 35 -9 56q0 108 41.5 164t52 59.5t38.5 3.5q83 0 154.5 -53.5t71.5 -115.5q0 -34 -17 -74t-58 -102l-71 -104l-15 -22z" />
    <glyph glyph-name="three" unicode="3" 
d="M115 452q7 45 17.5 79t20 43.5t64 28.5t122.5 19q105 0 105 -71q0 -25 -12 -50t-37 -55.5t-44.5 -50.5t-40.5 -37q98 -42 98 -143q0 -89 -62 -161t-140 -72q-86 0 -159 110q18 26 36 44t53 41q11 -31 18 -44t26 -34.5t62 -29.5q22 31 35 65t13 61q0 60 -75 89
q-23 -14 -43.5 -22t-34.5 -8q-17 0 -17 20q0 37 18 73.5t47 36.5q9 0 24 -4q79 66 97 130l-22 2q-36 0 -72.5 -13t-96.5 -47z" />
    <glyph glyph-name="four" unicode="4" 
d="M309 623q44 -22 60.5 -39.5t16.5 -43.5q0 -22 -10.5 -100t-22.5 -134q19 0 35.5 3.5t64.5 17.5q-33 -71 -57.5 -95t-63.5 -24q-3 -30 -6.5 -49t-15 -61.5t-19.5 -64.5t-23 -51q-43 17 -57.5 28t-14.5 25l2 33q0 58 4 82q7 28 13 59q-56 7 -80 10.5t-53.5 12t-29.5 48.5
q0 23 11 67.5t32.5 102.5t64.5 127q57 -35 57 -70q0 -13 -4.5 -28.5t-17 -57t-17.5 -55t-22 -45.5q20 -7 34.5 -9.5t41.5 -2.5q18 117 34.5 182t22.5 83t20 49z" />
    <glyph glyph-name="five" unicode="5" 
d="M439 629q-11 -56 -43.5 -97t-104.5 -41l-39 3l-5 -23q-7 -31 -11 -43.5t-15 -39.5q40 17 76 17q54 0 86 -33t32 -88q0 -85 -67 -162t-181 -123l-30 -13l-13 -4q-6 0 -17.5 10.5t-23.5 27t-18 30.5t-10 33q102 22 176.5 75.5t74.5 103.5q0 19 -14 31t-38 12
q-28 0 -50.5 -12t-58.5 -45q-22 17 -31 26t-18 22q30 162 78 319q55 -14 109 -14q48 0 82.5 6t73.5 22z" />
    <glyph glyph-name="six" unicode="6" 
d="M382 559q-69 -51 -111 -98t-72 -105q28 21 51.5 29t55.5 8q61 0 102 -44t41 -111q0 -94 -66.5 -172.5t-145.5 -78.5q-73 0 -129.5 64.5t-56.5 146.5q0 105 70.5 228.5t173.5 199.5q67 -21 87 -67zM281 317q-48 0 -84 -43.5t-36 -78.5q0 -41 23 -74t52 -33q18 0 41.5 17.5
t45 50t21.5 74.5q0 39 -17 63t-46 24z" />
    <glyph glyph-name="seven" unicode="7" 
d="M371 318h-13l-29 1q-63 -147 -92 -335q-97 47 -97 86q0 32 23 108.5t29.5 96t15.5 38.5q-20 -4 -31 -8.5t-36 -17.5l-13 -8q9 43 24 77t31 48t71 19q15 35 23.5 53t24.5 48q-145 0 -242 -71q0 37 12 82t22.5 54.5t36.5 17.5t61.5 14.5t72.5 10.5t63 4q30 0 46 -5
t42.5 -26t26.5 -37q0 -8 -4.5 -19.5t-15.5 -35t-22.5 -44t-20.5 -37.5l24 1l39 -1l20 -1q-29 -65 -50 -89t-42 -24z" />
    <glyph glyph-name="eight" unicode="8" 
d="M357 342q59 -50 59 -133q0 -84 -61 -154t-136 -70q-67 0 -115 47t-48 112q0 62 34 120t85 81q-26 26 -35.5 47.5t-9.5 51.5q0 74 53.5 128.5t128.5 54.5q52 0 91 -40t39 -95q0 -94 -85 -150zM312 555q-25 2 -49.5 -39.5t-24.5 -88.5q0 -20 8 -33t21 -13q27 0 50.5 37.5
t23.5 80.5q0 24 -8 39t-21 17zM269 296q-25 3 -64.5 -49t-39.5 -106q0 -31 13 -50t33 -19q34 0 65 49t31 103q0 33 -10 52.5t-28 19.5z" />
    <glyph glyph-name="nine" unicode="9" 
d="M303 275q-65 -48 -124 -48q-54 0 -89 40t-35 101q0 98 68 174t157 76q73 0 120 -55t47 -141q0 -119 -74 -242t-190 -199q-19 18 -28 30.5t-29 46.5q78 73 110.5 112.5t66.5 104.5zM286 531q-40 0 -76.5 -54.5t-36.5 -114.5q0 -27 13 -44t35 -17q49 0 84 46.5t35 111.5
q0 33 -14.5 52.5t-39.5 19.5z" />
    <glyph glyph-name="colon" unicode=":" horiz-adv-x="231" 
d="M113 97q54 0 54 -55q0 -27 -13.5 -42.5t-36.5 -15.5q-54 0 -54 53q0 60 50 60zM186 364q54 0 54 -55q0 -27 -13.5 -42.5t-36.5 -15.5q-54 0 -54 52q0 61 50 61z" />
    <glyph glyph-name="semicolon" unicode=";" horiz-adv-x="225" 
d="M179 364q54 0 54 -55q0 -27 -13.5 -42.5t-36.5 -15.5q-54 0 -54 52q0 61 50 61zM55 -2q7 26 9.5 40.5t4.5 34.5q0 15 23.5 23t45.5 8q34 0 34 -37q0 -62 -28 -102.5t-72 -40.5l-15 1q18 21 26 38t10 41l-23 -4l-9 -1z" />
    <glyph glyph-name="less" unicode="&#x3c;" 
d="M470 613v-130l-295 -147l295 -147v-129l-433 222v110z" />
    <glyph glyph-name="equal" unicode="=" 
d="M17 458h473v-61h-473v61zM17 310h473v-61h-473v61z" />
    <glyph glyph-name="greater" unicode="&#x3e;" 
d="M37 60v130l294 147l-294 147v129l433 -222v-110z" />
    <glyph glyph-name="question" unicode="?" horiz-adv-x="391" 
d="M246 591l-13 1q-38 0 -91 -21l-64 -30l-3 26q0 47 22.5 78t69.5 47t90 16q45 0 76.5 -25.5t31.5 -62.5q0 -24 -10.5 -47.5t-40.5 -70.5t-51 -83.5t-35 -69t-14 -63.5q0 -14 4 -28.5t8 -27.5q-16 -26 -35 -42t-63 -41q-33 38 -33 107q0 60 24.5 117t65.5 117t48.5 73.5
t12.5 29.5zM145 106q50 0 50 -50q0 -30 -15 -47t-40 -17q-51 0 -51 52q0 26 16 44t40 18z" />
    <glyph glyph-name="at" unicode="@" horiz-adv-x="680" 
d="M601 169h49q-37 -79 -118 -128t-174 -49q-138 0 -235 97t-97 235q0 140 97 237t237 97q126 0 213.5 -79.5t87.5 -195.5q0 -92 -64 -163t-149 -71q-53 0 -67 48q-55 -48 -104 -48q-51 0 -83 35t-32 91q0 87 59 156.5t133 69.5q61 0 92 -55l14 39h66l-78 -235
q-9 -29 -9 -39q0 -11 8 -19t20 -8q56 0 103 61t47 133q0 101 -74 170t-183 69q-121 0 -204 -84t-83 -208q0 -123 83 -207t204 -84q74 0 139 36.5t102 98.5zM389 289l23 63q5 15 8 28t3 24q0 25 -15 42t-36 17q-49 0 -93 -67t-44 -143q0 -32 14.5 -50.5t37.5 -18.5
q66 0 102 105z" />
    <glyph glyph-name="A" unicode="A" horiz-adv-x="539" 
d="M375 155h-15q-14 0 -32 2t-50.5 5t-52 5.5t-33.5 5.5q-7 -25 -17.5 -70t-23.5 -107.5t-19 -134.5q-70 36 -92 54.5t-22 42.5q0 19 23 118l33 122q-42 16 -55.5 37.5t-13.5 72.5q0 12 1 20t5 24q14 -18 34 -28t69 -23q24 76 59 145.5t79 126.5l29 36q47 59 59.5 71
t24.5 12q11 0 31 -8t43 -21.5t33 -24.5t20 -48t17.5 -113t7.5 -133q0 -167 -53 -354q-38 18 -62 33.5t-47 37.5l17 73zM390 266v30v136q0 47 -9 121q-49 -71 -89 -145t-58 -128q62 -15 130 -15z" />
    <glyph glyph-name="B" unicode="B" horiz-adv-x="559" 
d="M357 395q35 38 59 84t24 76q0 15 -9.5 25.5t-22.5 10.5q-45 0 -108.5 -84.5t-99 -181t-48.5 -163.5t-15.5 -91.5t-6.5 -61.5l-3 -28q-60 41 -77.5 61t-17.5 48q0 62 11 142.5t38 192.5t51 176.5t26.5 70t12.5 24.5q56 -23 72 -37t16 -38q0 -17 -4 -35t-16 -58
q22 40 38 64t37 46.5t54 38.5t64 16q50 0 83.5 -35.5t33.5 -87.5q0 -63 -33.5 -116t-91.5 -82q81 -48 81 -146q0 -56 -24 -111t-65.5 -93t-95.5 -38t-92 39t-38 96q0 48 33 85l7 -18q17 -49 49 -68t95 -19q2 13 6 38t4 46q0 77 -60 107q-27 -17 -51 -17q-10 0 -14 5.5
t-4 21.5q0 75 18.5 83t36 10t47.5 2z" />
    <glyph glyph-name="C" unicode="C" horiz-adv-x="476" 
d="M431 178q-39 -111 -58 -132t-78.5 -40t-101.5 -19q-23 0 -53.5 15t-66 52.5t-35.5 127.5q0 100 40 212t93.5 183t89 93.5t78.5 22.5q56 0 86 -45t30 -130q0 -15 -8 -25t-35.5 -29t-46.5 -27.5t-49 -15.5q15 59 15 107q0 14 -0.5 26t-10.5 42q-66 -83 -106 -188t-40 -197
q0 -20 2 -39t8 -49q140 0 247 55z" />
    <glyph glyph-name="D" unicode="D" horiz-adv-x="566" 
d="M278 520q-12 -24 -19 -43.5t-17.5 -57t-27.5 -108t-25 -112.5t-16 -105q70 0 122.5 47t87.5 135t35 165q0 73 -31 95t-104 22q-64 0 -117 -12t-141 -47q17 54 40 98t36.5 55.5t23.5 15.5t32 9t70 10t79 5q111 0 175 -61t64 -168t-39 -213.5t-91 -159.5t-115.5 -80
t-120.5 -27q-21 0 -52 14t-50.5 30t-23.5 23.5t-4 20.5q0 64 26 189t58 216q44 23 77 33.5t68 10.5z" />
    <glyph glyph-name="E" unicode="E" horiz-adv-x="425" 
d="M169 123h22q103 0 195 51q-28 -85 -54.5 -121.5t-76 -51.5t-99.5 -15q-60 0 -96.5 35.5t-36.5 94.5q0 71 41 139.5t100 95.5q-36 8 -57 36.5t-21 69.5q0 89 64 161t144 72q50 0 81 -37.5t31 -98.5q0 -28 -8 -40t-32.5 -25t-39.5 -18t-40 -8q18 41 18 83q0 15 -1 27.5
t-5 33.5q-81 -42 -81 -133q0 -26 5 -39.5t20 -30.5q17 8 27 8q37 0 37 -67q0 -34 -6 -56q-11 -5 -20 -5q-11 0 -26 9q-51 -57 -68 -89.5t-17 -71.5v-9z" />
    <glyph glyph-name="F" unicode="F" horiz-adv-x="451" 
d="M453 675l-28 -120q-52 7 -78 9.5t-57 2.5q28 -14 51.5 -32.5t24.5 -26.5l-5 -28l-2 -10l-2 -13l-3 -13l-2 -13l-2 -18h20l64 -2q-9 -26 -15.5 -52t-13.5 -59q-20 2 -33.5 3t-47.5 1l-2 -8l-2 -17q-10 -64 -15.5 -93t-16.5 -70.5t-18 -52.5t-48 -45.5t-57 -34.5t-42 15
t-45 34t-34.5 41.5t-15.5 30.5q-1 7 7 27.5t20 43.5q19 32 37 46q10 -54 24.5 -78.5t51.5 -49.5v19q0 21 9 73.5t21 107.5l-25 -4q-46 -6 -60 -9t-69 -17q21 37 31.5 51t35.5 44t32.5 32.5t55.5 7.5l25 4q10 44 20 78.5t27 86.5l-9 -1q-71 0 -97.5 -3t-46.5 -5l-91 -14
q14 24 16.5 28t29.5 41.5t34.5 44t54.5 18t181 11.5q42 0 61 -2t49 -10z" />
    <glyph glyph-name="G" unicode="G" horiz-adv-x="495" 
d="M352 375q22 -12 35.5 -22t30 -23.5t20.5 -18.5t4 -15q0 -33 -12.5 -106t-23 -112t-18 -62.5t-26 -77.5t-27.5 -66.5t-39 -33t-43 -26.5t-26 -6q-48 0 -97 94q22 32 38 47t47 36q6 -52 45 -76q-5 25 -5 48q0 28 5 56t20 86l10 37q-58 -76 -86.5 -103.5t-61.5 -41.5
q-13 2 -32.5 14t-49.5 37t-30 118q0 98 42 212t97 186.5t98 103.5t74 31t59.5 -18t44.5 -49t28 -81l2 -11q0 -9 -13.5 -23.5t-36.5 -32t-39.5 -26.5t-40.5 -15q15 30 15 71q0 28 -4 44.5t-17 40.5q-78 -75 -124 -183t-46 -218q0 -28 9 -68q115 98 174 253z" />
    <glyph glyph-name="H" unicode="H" horiz-adv-x="566" 
d="M242 218h-23l-21 -103q-11 -50 -18 -76t-18 -56q-17 8 -32 16.5t-42 28.5q-11 10 -13 12.5t-2 9.5l3 38q13 112 19 145q-37 6 -45.5 16t-13.5 37.5t-6 34t-1 20.5q0 17 5 43q21 -23 33.5 -29t44.5 -9q10 56 20 102.5t19.5 89t20 79.5t23.5 71q53 -29 71 -46t18 -38
q0 -28 -6 -69t-34 -200q27 -2 44.5 -2.5t35.5 -0.5l36 2q6 51 33 158.5t45 161.5l12 32q42 -20 65.5 -41t23.5 -34q0 -12 -3 -42t-11 -87.5t-24.5 -155.5t-27.5 -146l-10 -46l-29 -136q-11 -46 -18.5 -70t-21.5 -58q-28 15 -50.5 30t-35 26.5t-12.5 29.5q0 14 3 43t7 57
l27 161h-24h-31z" />
    <glyph glyph-name="I" unicode="I" horiz-adv-x="408" 
d="M161 91l32 105q26 87 41.5 174.5t20 120.5t4.5 69q-36 0 -69 -8t-81 -29l-22 -9q11 48 32.5 92t38.5 55t61 19t88 8q19 0 30 -4t28.5 -17t20.5 -22.5t3 -48.5q0 -100 -29 -249t-57 -217.5t-50 -92t-59 -39.5t-49 -16q-11 0 -34.5 16.5t-46 43t-37.5 67.5l-4 17
q0 9 22.5 46t40.5 57t46 36q-9 -31 -9 -55q0 -58 38 -119z" />
    <glyph glyph-name="J" unicode="J" horiz-adv-x="471" 
d="M276 374q10 44 17 91.5t7 85.5q-69 -8 -106 -18t-101 -37q10 44 17.5 63.5t22.5 51.5t44 42.5t83 21.5t87 11q37 0 61 -19.5t24 -30.5l1 -18l1 -28q0 -29 -8 -88.5t-20 -117.5l28 5l16 3q-14 -61 -27.5 -86t-40.5 -40q-64 -254 -144.5 -348.5t-109.5 -94.5
q-40 0 -67 62.5t-27 159.5q0 80 15 166t43 162q14 -2 33.5 -2.5t33.5 -0.5q26 0 63 2t54 2zM163 -18q28 70 48 128t42 139l-44 -1l-46 2q-14 -60 -14 -151q0 -61 14 -117z" />
    <glyph glyph-name="K" unicode="K" horiz-adv-x="484" 
d="M198 330l-3 -16q53 34 110.5 146t82.5 232q38 -21 60.5 -52.5t22.5 -63.5q0 -33 -22 -86.5t-51 -94t-52 -66.5t-54 -53q25 -46 33 -66.5t33 -93.5q23 4 34 8t38 16q0 -29 -5.5 -51.5t-17 -46.5t-33 -41.5t-41.5 -17.5q-34 0 -70 56t-56 123l-16 59l-9 31l-10 -37l-9 -40
l-9 -39l-9 -40q-7 -30 -15.5 -60.5t-15.5 -53.5q-48 32 -67.5 50.5t-19.5 32.5l6 60q13 117 42.5 252t44 189.5t27.5 91.5l13 35q47 -25 66 -45t19 -45q0 -16 -3 -42t-12 -79l-24 -121l-4 -15z" />
    <glyph glyph-name="L" unicode="L" horiz-adv-x="549" 
d="M114 154h11q18 29 30.5 71t28.5 135t31.5 136.5t70 119t143.5 75.5q49 0 82 -42t33 -104q0 -25 -5 -53t-10 -35.5t-49 -35.5t-87 -45q21 44 29 78.5t8 84.5v11q0 21 -2.5 32.5t-5.5 21.5q-47 -24 -69.5 -72.5t-37 -160t-27.5 -154.5t-44 -78l69 -18q41 -12 57.5 -15
t38.5 -3q27 0 48 5.5t64 25.5q-22 -38 -39 -60t-45 -48.5t-36 -32.5t-15 -6q-31 0 -102.5 18t-124.5 39l-15.5 -15.5t-20 -16.5t-31.5 -17.5t-30 -7.5q-18 0 -33.5 9.5t-15.5 19.5q0 18 4.5 39t8.5 41t7 24.5t27 19t54 14.5z" />
    <glyph glyph-name="M" unicode="M" horiz-adv-x="772" 
d="M367 -6l-2 -11q-67 34 -84 47t-17 30q0 21 6.5 65t27.5 148t37 154t19.5 58.5t17.5 34.5q-48 -37 -91 -96t-72 -126.5t-44.5 -134t-30.5 -182.5q-47 18 -73.5 40.5t-26.5 52.5q0 106 40 288.5t95 327.5q46 -14 65.5 -24.5t22.5 -15.5t3 -15q0 -29 -5 -67.5t-17 -94.5
q60 97 100.5 146t50.5 58t19 9q16 0 53.5 -22t37.5 -45q0 -34 -38 -182q73 125 122 177.5t60 62t18 9.5q8 0 24.5 -7.5t33.5 -18.5t21 -17.5t4 -18.5q0 -13 -3 -46.5t-8.5 -79t-12 -84t-24 -117t-25.5 -109t-20 -70.5q32 0 41.5 1t35.5 8l-8 -26q-19 -65 -31.5 -79.5
t-35 -25.5t-39.5 -11q-37 0 -63.5 31.5t-26.5 75.5q0 30 3 58.5t13 85.5t19.5 103.5t19.5 80.5q5 22 9 32.5t17 38.5q-95 -68 -142 -170t-65 -180l-26 -124l-3 -12z" />
    <glyph glyph-name="N" unicode="N" horiz-adv-x="535" 
d="M380 518q-86 -67 -145.5 -183t-76.5 -179t-17 -176q-105 47 -105 78q0 22 4 67.5t11.5 101.5t23.5 134t37 155.5t30 104t29 71.5q48 -21 67 -34t19 -37q0 -30 -5.5 -59.5t-23.5 -114.5q39 64 57 90t49.5 66t54 62t33.5 22q5 0 12.5 -3.5t32.5 -20.5t32.5 -25.5t7.5 -24.5
q0 -77 -24.5 -201.5t-73.5 -293.5q23 0 36 3t38 14q-30 -86 -55 -117.5t-64 -31.5q-37 0 -60 28t-23 72q0 33 9 88.5t31.5 152t58.5 191.5z" />
    <glyph glyph-name="O" unicode="O" horiz-adv-x="567" 
d="M521 538l9 9l15 17l2 -23q0 -46 -20 -77l1 -16q0 -31 -16 -130t-56.5 -169.5t-105.5 -117.5t-124 -47q-15 0 -35.5 8t-83.5 51.5t-63 216.5q0 126 54 244.5t143 187.5q32 -22 48.5 -39.5t39.5 -54.5q9 46 17 63.5t28 33.5q76 0 106 -32t41 -125zM328 590
q-66 -36 -109 -130.5t-43 -204.5q0 -138 67 -171q65 39 107 126.5t56 210.5q-15 -5 -20 -6.5t-11 -1.5q-10 0 -18 11.5t-21 46.5t-13 69q0 10 1 20t4 30z" />
    <glyph glyph-name="P" unicode="P" horiz-adv-x="507" 
d="M226 189l-11 -49l-14 -70q-10 -40 -13.5 -56t-6.5 -33q-95 51 -95 76l7 70q7 71 11 102t18 112.5t24 120t30 90.5q-76 -18 -149 -58q8 39 25 86t27 57t80 31t140 21q95 0 151 -43t56 -116q0 -62 -37 -133t-80.5 -108t-74.5 -55.5t-88 -44.5zM250 324q57 27 98.5 82.5
t41.5 104.5q0 57 -86 57q-64 0 -109 -12q48 -18 60 -28t12 -28q0 -23 -2.5 -48.5t-6.5 -60.5z" />
    <glyph glyph-name="Q" unicode="Q" horiz-adv-x="564" 
d="M378 69q57 -49 112 -72q-28 -21 -61 -36t-54 -15q-13 0 -35 17t-51 49q-46 -23 -84 -23q-34 0 -71 22t-59 54.5t-31 64.5t-9 77q0 190 95 335t220 145q81 0 130.5 -66.5t49.5 -175.5q0 -219 -152 -376zM260 219q10 -24 20 -39.5t27 -35.5q44 70 73 158.5t29 155.5
q0 62 -18.5 98.5t-49.5 36.5q-54 0 -115.5 -122t-61.5 -251q0 -109 48 -115l-4 18q0 12 11.5 36.5t40.5 59.5z" />
    <glyph glyph-name="R" unicode="R" horiz-adv-x="598" 
d="M267 237q70 65 89 85.5t60.5 83.5t41.5 110q0 31 -20.5 48.5t-55.5 17.5q-51 0 -100.5 -21t-126.5 -75q-38 53 -38 105q0 11 4 15.5t42 23.5t112 40.5t121 21.5q77 0 130 -43t53 -106q0 -46 -29 -106t-58 -91t-63 -63t-56 -51q13 -26 20.5 -56.5t11.5 -75.5
q50 13 77.5 27t64.5 47q-2 -25 -10 -56t-20 -56t-48 -49t-68 -24q-29 0 -45 7.5t-31.5 30.5t-29.5 52.5t-31 79.5l-12 32l-13 -41q-26 -76 -37 -97.5t-41 -44.5t-66 -23q-30 0 -53.5 29t-23.5 36l5 22q21 72 76 111q-5 -15 -5 -26q0 -22 6 -36t22 -31q7 54 19.5 125
t31 151.5t24 97.5t21 28t50 26.5t73.5 27.5l-17 -95q-9 -47 -41 -160z" />
    <glyph glyph-name="S" unicode="S" horiz-adv-x="435" 
d="M311 294l16 -30q40 -80 40 -122q0 -30 -16 -65.5t-36.5 -54t-55 -28.5t-74.5 -10q-97 0 -127 55q-10 16 -15 38t-9 64q42 -21 78 -30t78 -9l39 4l2 14q0 13 -3.5 27t-8.5 30l-30 67l-15 33l-15 32l-15 32q-27 56 -37 85t-10 50q0 38 21 82.5t60 82t94 37.5q27 0 54.5 -8
t53 -20t27.5 -18.5t2 -33.5q0 -50 -11 -102q-36 32 -72.5 45.5t-93.5 13.5q-8 -25 -8 -40q0 -30 22 -88l34 -72l15 -30z" />
    <glyph glyph-name="T" unicode="T" horiz-adv-x="406" 
d="M64 557l2 8l18 63l17 60q44 -12 85 -17t104 -5q56 0 80 3t68 17l-15 -56q-8 -37 -10.5 -44t-12 -12.5t-52 -16t-74.5 -14.5l64 -35q7 -4 7 -12l-13 -89l-6 -41l-7 -40q-26 -171 -59.5 -230.5t-64 -83.5t-54.5 -24q-39 0 -76 52.5t-37 65.5q0 12 29.5 38.5t66.5 48.5
l-2 -14q0 -20 11 -41t28 -33v8q0 59 1 78q4 24 9 80.5t24 137t43 132.5l-36 -2q-37 0 -73 5t-42 6t-23 7z" />
    <glyph glyph-name="U" unicode="U" horiz-adv-x="557" 
d="M215 335l-9 -42q-11 -49 -17 -84t-9 -60q63 62 95.5 103.5t51 84.5t40.5 121.5t29.5 125t10 68t2.5 49.5q110 -42 110 -124q0 -18 -3 -42t-16 -101t-29 -150.5t-23.5 -100.5t-16.5 -59q30 5 49.5 10t41.5 12q-12 -38 -27.5 -75t-24 -48t-41.5 -22t-58 -11q-12 0 -25 12.5
t-25 33t-12 34.5l2 30q4 42 10.5 62.5t13.5 42.5l-53 -69q-28 -38 -50 -62.5t-54.5 -54t-43.5 -29.5q-14 0 -34 18t-32 40.5t-12 86.5q0 78 17 170t55 214l-16 -11q-10 -6 -18.5 -11.5t-20.5 -14.5l-15 -11q-7 25 -9 42t-2 44q0 20 3 27t22 25l63 54q27 22 37 29.5t18 6.5
q11 0 34.5 -14.5t28.5 -26t5 -49.5q0 -69 -16 -153l-17 -78z" />
    <glyph glyph-name="V" unicode="V" horiz-adv-x="546" 
d="M282 539l-5 -30l-34 -203q-10 -67 -10 -114q0 -8 1.5 -28t5.5 -50q31 19 53.5 55.5t48.5 108t42 147.5q-24 22 -34 37.5t-10 28.5l9 98q2 18 8 27t33 38l38 40q6 6 10.5 8.5t7.5 4.5q2 0 10.5 -5t37 -24t36.5 -31t8 -43q0 -32 -13 -114q7 3 10.5 5t13.5 8q-8 -52 -17 -72
t-28 -32q-23 -79 -44 -136t-53.5 -119t-87.5 -108t-64 -46q-7 0 -15 5t-57 40.5t-62.5 54t-13.5 60.5q0 48 5 109t13 113.5t15 82t21 71.5q-23 -18 -48 -35.5t-59 -36.5q-13 29 -19 51.5t-6 45.5q0 9 2 13t14 15l55 47q28 25 46.5 38.5t38.5 25.5t26 12t25 -11.5t37.5 -26.5
t18.5 -49q0 -13 -10 -76z" />
    <glyph glyph-name="W" unicode="W" horiz-adv-x="766" 
d="M68 699q101 -33 125.5 -67.5t24.5 -146.5v-12q0 -32 -3.5 -69t-6.5 -74q20 43 39.5 78.5t46.5 77.5t45.5 62.5t51.5 41.5q15 -22 72 -78q-10 -30 -13 -58.5t-3 -95.5q0 -147 14 -231q40 10 72.5 93.5t51.5 196.5l-15 14q-24 21 -27.5 32.5t-3.5 98.5q0 18 39 74t67 56
q13 0 34 -8.5t32 -17t18.5 -37.5t7.5 -58q0 -19 -6 -61l-3 -29q5 2 22 10q0 -46 -9.5 -68.5t-31.5 -39.5q-28 -154 -101 -273t-142 -119q-28 0 -73.5 31t-48.5 34t-16.5 49.5t-13.5 143.5q0 53 1 69t9 57q-24 -21 -35.5 -35.5t-43 -68t-56.5 -126.5t-35 -159
q-56 25 -86.5 53.5t-30.5 55.5q0 9 3 31t15 103.5t18.5 151.5t6.5 145q0 90 -12 173z" />
    <glyph glyph-name="X" unicode="X" horiz-adv-x="551" 
d="M104 539l-20 27l-16 22q17 38 33.5 60.5t47.5 51.5q71 -89 143 -206q52 77 87.5 120.5t66 67.5t49.5 24q26 0 48 -31t22 -69q0 -34 -17 -65t-59 -74q0 35 -12 60q-24 -25 -54 -66l-65 -93l37 -73l22 -47l10 -21l9 -21q21 -46 29 -67.5t8 -35.5q0 -24 -26.5 -57.5
t-70.5 -63.5q-5 37 -11 58.5t-24.5 71t-28.5 75t-28 64.5q-10 -18 -24 -44t-30 -58t-36 -71t-39.5 -65t-43.5 -26q-35 0 -60 31t-25 75q0 86 61 143l-2 -20q0 -18 14 -57q38 90 116 215q-11 18 -24 40t-29 44l-17 25l-21 28z" />
    <glyph glyph-name="Y" unicode="Y" horiz-adv-x="539" 
d="M256 509l-7 -48q-9 -56 -17 -112q-4 -19 -9.5 -50t-13.5 -64t-25 -99q28 19 47 39t61.5 79.5t69 143t59.5 291.5q52 -26 74.5 -53.5t22.5 -65.5q0 -29 -18.5 -167t-21 -150t-16 -85t-34 -162t-27 -104.5t-28.5 -37t-58 -40.5t-59 -19q-48 0 -101 78q31 52 39 63t39 37
q8 -49 62 -89l-2 46q0 95 43 256q-37 -57 -52 -78.5t-25 -32.5l-23 -25l-22 -24l-23 -24q-18 -21 -26 -21q-5 -1 -24.5 11.5t-43.5 31t-24 43.5l1 60q0 54 5 93q7 41 18.5 117t48.5 198q-28 -10 -45.5 -29.5t-31.5 -55.5q-12 19 -18.5 31t-14 32.5t-7.5 38.5q0 11 15.5 32.5
t55 61.5t71.5 40q28 0 61.5 -32t33.5 -56q0 -29 -10 -99z" />
    <glyph glyph-name="Z" unicode="Z" horiz-adv-x="568" 
d="M136 640q76 35 136.5 50t124.5 15q41 0 60.5 -7t41 -27.5t32.5 -35t11 -21.5l-9 -36q-20 -69 -32 -97.5t-55 -111.5q21 0 45.5 4t38.5 6q-10 -31 -19 -50.5t-23.5 -40t-23 -23.5t-35.5 -3l-47 3q-10 -16 -24 -36t-30 -40.5t-33.5 -43t-33.5 -41.5q62 -24 119 -61
q35 55 90 70q35 -36 35 -84q0 -42 -40 -75t-90 -33q-46 0 -96.5 24.5t-109.5 74.5q-32 -26 -70 -26q-37 0 -60 32.5t-23 84.5l2 34q37 11 62 11q14 0 28 -2t42 -9l29 38q25 32 43.5 56.5t32.5 49.5l-55 17q-16 4 -18 22q-9 49 -9 77l1 24q68 -36 140 -45l43 94
q10 20 18.5 45.5t13.5 46.5l-35 2q-49 0 -80.5 -9.5t-105.5 -46.5q-33 50 -33 105z" />
    <glyph glyph-name="bracketleft" unicode="[" horiz-adv-x="372" 
d="M133 374l9 49q23 124 28.5 147.5t22.5 72t23 54.5t20 6l32 -3l27 -2q8 0 25.5 1.5t57.5 5.5l32 1l45 -1q-5 -25 -16.5 -49t-22.5 -28.5t-38.5 -8.5t-41.5 -5t-32 -1l-20 2q-16 -81 -20 -113l-7 -44l-6 -44l-6 -44q-4 -29 -15.5 -90t-27.5 -141l-12 -56l-7 -33l-8 -32
l-7 -33l-14 -65l61 2q55 0 80 -15t25 -49v-8l-1 -23q-36 4 -49.5 5t-29.5 1l-48 -1l-29 -1q-60 0 -78.5 12t-18.5 53q0 32 9.5 112.5t22.5 166.5z" />
    <glyph glyph-name="backslash" unicode="\" horiz-adv-x="304" 
d="M-44 -166l3 13l32 136q16 67 22.5 93t54.5 201t77 253l31 87q11 31 30.5 47.5t73.5 41.5q0 -49 -17.5 -119.5t-39.5 -158t-64 -226t-74 -224.5t-49.5 -105t-79.5 -39z" />
    <glyph glyph-name="bracketright" unicode="]" horiz-adv-x="339" 
d="M56 682v23q28 -3 51 -4.5t28 -1.5l48 1l29 1q60 0 78.5 -12t18.5 -53q0 -32 -9 -111.5t-24.5 -177.5t-21 -125t-12.5 -64l-27 -143q-13 -64 -15 -71t-18.5 -54.5t-21 -54t-21.5 -6.5l-31 3l-28 2l-82 -7l-32 -1l-45 1q4 20 8 30t11.5 26t19 21t46 10t65.5 5l21 -2l20 113
l6 44l7 44l6 44q4 30 16 95t26 136l20 89l7 32l8 33l14 65l-61 -2q-55 0 -80 15t-25 49v8z" />
    <glyph glyph-name="asciicircum" unicode="^" 
d="M140 357h-117l158 313h145l158 -313h-117l-114 225z" />
    <glyph glyph-name="underscore" unicode="_" 
d="M3 -61h500v-79h-500v79z" />
    <glyph glyph-name="grave" unicode="`" 
d="M347 637q13 0 22.5 -7.5t35.5 -42t26 -55.5q0 -9 -5.5 -14.5t-13.5 -5.5q-6 0 -15 4t-57.5 25t-48.5 67q0 29 56 29z" />
    <glyph glyph-name="a" unicode="a" horiz-adv-x="481" 
d="M432 109q-28 -50 -46.5 -75.5t-24.5 -32.5t-28 -7q-75 0 -75 56l4 32q-81 -91 -145 -91q-37 0 -59 28.5t-22 76.5q0 95 62.5 193.5t150.5 141.5q29 -10 45.5 -21.5t42.5 -39.5l9 38l5 28q48 -18 66.5 -31.5t18.5 -32.5q0 -42 -19.5 -122t-43.5 -141l31 -1zM176 92
q46 23 74 64.5t41.5 75t43.5 136.5q-63 -26 -115 -98t-52 -135q0 -16 8 -43z" />
    <glyph glyph-name="b" unicode="b" horiz-adv-x="379" 
d="M337 297l7 7q0 -48 -7 -65t-29 -32q-12 -81 -62 -149t-98 -68q-18 0 -40 11t-45.5 35.5t-23.5 84.5q0 87 37 233.5t62 211.5t61 124q66 -50 66 -68q0 -12 -1 -19t-12.5 -62t-51.5 -195q33 36 55 53.5t52 31.5q11 -26 15 -40.5t4 -26.5l-4 -55l-3 -28zM183 286l-47 -182
q56 23 98 100q-23 16 -33.5 32.5t-17.5 49.5z" />
    <glyph glyph-name="c" unicode="c" horiz-adv-x="362" 
d="M299 113q-24 -93 -37 -106q-10 -8 -50 -17t-64 -9q-50 0 -80.5 35.5t-30.5 92.5q0 112 54 183.5t87.5 98t53.5 26.5q13 0 34.5 -6t42.5 -18.5t21 -60.5q0 -13 -4 -35t-7.5 -32.5t-10 -14.5t-23.5 -10t-28.5 -9t-39.5 -3l4 10q16 35 16 78l-1 17q-37 -31 -61 -83t-24 -100
q0 -32 9 -68q37 0 65.5 7t73.5 24z" />
    <glyph glyph-name="d" unicode="d" horiz-adv-x="480" 
d="M356 698q31 -11 54.5 -26.5t28 -22t4.5 -18.5q0 -24 -6 -59t-23.5 -109.5t-31 -119t-44.5 -129.5q0 -36 3.5 -53.5t8.5 -35.5q37 3 47.5 6t37.5 15q-18 -47 -22.5 -59t-25.5 -58l-9 -20q-20 -6 -39.5 -10t-32.5 -4q-52 0 -60 79q-35 -49 -56 -65t-49 -16q-48 0 -77 38
t-29 103q0 157 151 308q33 -16 47 -26.5t34 -33.5q10 63 31 136t31 106t27 74zM241 200q0 48 3 66t14 70l8 41q-51 -45 -83.5 -107.5t-32.5 -115.5q0 -21 12 -52q20 18 34.5 35.5t44.5 62.5z" />
    <glyph glyph-name="e" unicode="e" horiz-adv-x="383" 
d="M329 152q-17 -86 -39.5 -110.5t-59.5 -37.5t-72 -13q-54 0 -87 36t-33 96q0 109 71.5 214t133.5 105q42 0 73.5 -31.5t31.5 -74.5q0 -73 -56 -125.5t-139 -52.5l-2 -31l2 -24q16 -4 24 -5t19 -1q38 0 66.5 12t66.5 43zM258 359q-43 -26 -68 -70.5t-34 -113.5
q30 9 48.5 28.5t31 51t17.5 54.5t5 50z" />
    <glyph glyph-name="f" unicode="f" horiz-adv-x="313" 
d="M86 338h7l9 -1q29 126 46.5 184.5t39 116.5t32.5 58q7 0 24.5 -11t38.5 -29t21 -73q0 -35 -16.5 -92t-38 -107t-32 -74.5t-19.5 -51.5q19 -20 28 -20q11 0 29.5 13.5t44.5 40.5q-5 -47 -26.5 -112.5t-67.5 -65.5q-9 0 -15.5 2t-20.5 9l1 -38q0 -38 -5 -96.5t-11.5 -99.5
t-20.5 -89q-102 50 -102 97q0 46 10 126t26 161l-20 14q-17 11 -20.5 16.5t-3.5 23.5q0 44 7 59t24 26t31 13z" />
    <glyph glyph-name="g" unicode="g" horiz-adv-x="467" 
d="M318 447q65 -22 84 -43t19 -72q0 -71 -28 -188.5t-62.5 -188.5t-73.5 -116.5t-67 -45.5q-24 0 -54 14t-41 31.5t-11 65.5q0 21 2 34t3 22q39 0 76 37l-35 -5q-6 0 -23.5 8t-44.5 27t-27 81q0 50 22 111.5t57 108.5t68.5 80t47.5 33q18 0 41.5 -14t44.5 -38l3 40zM167 98
q115 43 149 288q-61 -29 -107 -104.5t-46 -146.5zM197 -95l36 86q11 30 19 52t15 46q-28 -35 -48 -54t-46 -35l-1 -14q0 -59 25 -81z" />
    <glyph glyph-name="h" unicode="h" horiz-adv-x="440" 
d="M400 109q-15 -49 -28.5 -78t-32.5 -39t-42 -10q-31 0 -49 20t-18 56q0 38 12 98t35 134q-32 -27 -52 -57.5t-42 -82.5t-33.5 -89t-21.5 -82q-31 10 -59 28.5t-28 29.5l4 34q12 102 27 195.5t31 173t28.5 124.5t38.5 115q34 -15 57.5 -35.5t23.5 -35.5q0 -10 -7 -57
t-15.5 -94t-15.5 -78.5t-22 -86.5l16 20q43 58 74.5 90.5t45.5 32.5q11 0 36.5 -14.5t28.5 -20.5t3 -35q0 -60 -20 -151l-28 -122q26 7 33 9.5t20 7.5z" />
    <glyph glyph-name="i" unicode="i" horiz-adv-x="289" 
d="M221 122q-20 -84 -37.5 -107.5t-61.5 -23.5q-33 0 -52 22t-19 62q0 61 31.5 174.5t67.5 184.5q28 -14 48 -29t23 -20t3 -14t-1 -17t-14 -77t-16.5 -83t-23.5 -83q19 2 28 4t24 7zM208 616q25 0 39.5 -15.5t14.5 -42.5q0 -26 -16 -44t-40 -18t-40 15t-16 40q0 29 16 47
t42 18z" />
    <glyph glyph-name="j" unicode="j" horiz-adv-x="258" 
d="M126 441q83 -34 83 -62l-2 -17l-15 -127q-7 -60 -24 -149t-29 -137t-15.5 -58.5t-19.5 -49.5q-26 14 -49 33t-26 24t-3 13q0 9 3 46.5t8 91.5t17.5 124t26.5 128t21 80t24 60zM174 631q22 0 36 -15.5t14 -41.5q0 -29 -15 -47t-41 -18q-24 0 -38 15t-14 39q0 30 16 49
t42 19z" />
    <glyph glyph-name="k" unicode="k" horiz-adv-x="454" 
d="M396 121l-6 -27l-10 -40q-4 -20 -7.5 -27t-28.5 -21.5t-65 -14.5t-74 36t-57 103q-10 -34 -13.5 -51.5t-11.5 -63.5l-6 -28q-79 29 -79 60l10 94q24 182 59.5 322t45 170t21.5 61q41 -24 56 -40t15 -34q0 -39 -22 -152l-32 -150q82 119 158 119q35 0 59.5 -25.5
t24.5 -60.5q0 -32 -22 -70t-49 -60t-49 -36.5t-58 -35.5l12 -20l7 -12q8 -13 12.5 -20t8.5 -11q45 11 62.5 17t38.5 18zM158 157q60 22 105.5 64t45.5 75q0 9 -6 16t-15 7q-29 0 -68 -48.5t-62 -113.5z" />
    <glyph glyph-name="l" unicode="l" horiz-adv-x="285" 
d="M249 113q-20 -74 -30 -90.5t-31.5 -24.5t-42.5 -8q-22 0 -46 13t-36 29.5t-17 37t-5 50.5q0 65 18 176t39 187.5t37 113.5t48 92l24 -19q35 -27 47 -48t12 -54q0 -55 -36 -160l-47 -129q-15 -41 -18.5 -66.5t-3.5 -108.5l23 -1q25 0 65 10z" />
    <glyph glyph-name="m" unicode="m" horiz-adv-x="648" 
d="M607 126q-18 -56 -45 -94.5t-48 -38.5q-12 0 -30 9t-35 25t-17 42q0 13 3 27.5t11.5 57t16 69.5t25.5 76q-27 -17 -41 -31t-44 -57t-55.5 -98t-41.5 -123q-15 6 -23.5 10.5t-30.5 17t-25.5 19t-3.5 18.5q0 14 5.5 47t13.5 71t14 60.5t19 57.5q-62 -56 -106 -144.5
t-44 -158.5q-49 21 -71.5 37.5t-22.5 31.5q0 23 23 130.5t36 153.5t31 95q12 -4 39 -14.5t35.5 -15.5t8.5 -18q0 -16 -4 -43t-10 -55q45 63 84 105t53 42q7 1 26.5 -8t32 -18t12.5 -27q0 -37 -15 -96q17 23 33 41.5t47.5 50.5t48.5 44t29 12q22 0 42.5 -16t23.5 -21t3 -16
q0 -21 -3 -40q-7 -28 -13 -58t-13.5 -62t-30.5 -105q22 0 33 3t24 5z" />
    <glyph glyph-name="n" unicode="n" horiz-adv-x="471" 
d="M428 120q-19 -45 -47.5 -89t-38.5 -45l-38 12q-34 13 -48 28t-14 40q0 28 13 85.5t21 79.5t26 58q-78 -50 -115 -125t-48 -107.5t-21 -75.5q-35 17 -60.5 38t-25.5 36q0 18 3.5 33t15.5 84.5t28 127.5t47 134q87 -31 87 -56q0 -21 -12 -90q46 65 92.5 106t68.5 41
q16 0 51 -22q18 -13 18 -34q0 -38 -21 -124.5t-45 -146.5q15 0 30 4t33 8z" />
    <glyph glyph-name="o" unicode="o" horiz-adv-x="430" 
d="M406 293q0 -49 -20 -84q-6 -14 -30 -22q-21 -55 -50 -97.5t-71 -71t-77 -28.5q-48 0 -82 44t-34 105q0 80 33 154t98 140q29 -13 43 -25t29 -41q7 23 11 32.5t17 33t17 28.5t10 5q22 0 61.5 -21.5t39.5 -41.5q0 -17 -5.5 -50t-16.5 -78q10 3 19 11zM275 233
q-36 45 -36 83l3 40q-38 -38 -61.5 -96t-23.5 -117q0 -21 9 -48q68 45 109 138z" />
    <glyph glyph-name="p" unicode="p" horiz-adv-x="432" 
d="M111 433l60 -30q24 -14 24 -47q0 -11 -0.5 -20.5t-0.5 -18.5q19 40 51 79t45 39q5 0 21.5 -9.5t36 -24.5t32.5 -49.5t13 -73.5q0 -104 -50 -197t-106 -93q-29 0 -45 17t-31 62q-23 -112 -29.5 -158t-15.5 -117q-18 8 -37.5 19t-34.5 22q-17 15 -17 32q0 34 3 62t6 62
q0 44 5.5 80.5t15.5 105t23 134t31 124.5zM231 143q8 -11 11 -17t5 -12l7 -14q40 62 40 144q0 30 -15 64q-39 -36 -59 -75.5t-49 -141.5l22.5 22.5t37.5 29.5z" />
    <glyph glyph-name="q" unicode="q" horiz-adv-x="437" 
d="M324 423v14q45 -20 63 -36t18 -35q0 -13 -1.5 -27t-16.5 -100.5t-46 -209.5t-42 -158.5t-26 -73.5q-80 38 -80 68q0 13 12 69t19.5 82t19.5 66q-41 -52 -69.5 -73.5t-56.5 -21.5q-44 0 -68 32.5t-24 92.5q0 89 55 178t149 150q28 -10 43 -20t45 -40q4 17 5 24t1 19z
M146 76q72 46 106 104.5t65 193.5q-48 -21 -74 -42.5t-65 -79t-39 -145.5q0 -10 1 -15.5t6 -15.5z" />
    <glyph glyph-name="r" unicode="r" horiz-adv-x="289" 
d="M271 304q-8 -49 -20.5 -70t-35.5 -21q-16 0 -38 13q-34 -92 -54 -237q-25 14 -40.5 24.5t-29.5 20.5t-14 26q0 20 1.5 37t14 104t23.5 135.5t31 104.5q19 -6 34 -15t31 -25q6 16 11.5 30.5t14.5 29.5q32 -19 51.5 -40.5t19.5 -38.5q0 -12 -15 -43l-21 -50q11 0 14.5 1.5
t21.5 13.5z" />
    <glyph glyph-name="s" unicode="s" horiz-adv-x="314" 
d="M279 400q8 -43 8 -70q0 -23 -9 -53q-22 28 -41.5 41t-46.5 13l36 -79q15 -32 25 -71.5t10 -68.5q0 -123 -117 -123q-42 0 -57.5 4t-28.5 23.5t-20 46t-7 70.5q45 -40 99 -40q12 0 28 6q-33 59 -55 121.5t-22 102.5q0 45 29.5 78.5t68.5 33.5q20 0 46.5 -9t53.5 -26z" />
    <glyph glyph-name="t" unicode="t" horiz-adv-x="295" 
d="M159 681q50 -18 66.5 -30t18.5 -18.5t2 -22.5q0 -40 -6.5 -89.5t-12.5 -93.5l-10 -76q26 -5 38 -6t22 -1q-27 -89 -32.5 -95t-11.5 -7t-30 -1l-23 -113q-10 -53 -15 -76.5t-16 -63.5q-62 21 -72.5 29.5t-10.5 37.5l3 99q0 34 1 48t9 70l-15 8q-19 9 -24 23t-5 59l2 38
q15 -7 31 -13t32 -10q0 23 4 46t10.5 61.5t16.5 88.5t13.5 63.5t7.5 25t7 19.5z" />
    <glyph glyph-name="u" unicode="u" horiz-adv-x="462" 
d="M359 98h8l10 1l24 4l19 4q-27 -63 -50.5 -92.5t-65.5 -29.5q-37 0 -52.5 13.5t-15.5 46.5v20q4 14 7 27l2 15q-34 -47 -62 -72.5t-46.5 -39t-25.5 -13.5q-4 0 -21.5 9t-29 16t-15.5 13.5t-4 25.5q0 75 25 193t56 187q38 -11 64 -29.5t26 -36.5q0 -11 -18.5 -95
t-36.5 -145q52 35 87.5 96t91.5 214q33 -15 54.5 -33.5t21.5 -31.5q0 -25 -14.5 -108t-38.5 -159z" />
    <glyph glyph-name="v" unicode="v" horiz-adv-x="415" 
d="M398 343q-8 -53 -16 -71.5t-28 -33.5q-5 -45 -27 -93t-52 -79q-26 -29 -61 -48.5t-41.5 -22t-10.5 -4.5q-10 0 -47 25.5t-52.5 84.5t-15.5 115q0 61 8 108.5t19.5 60.5t43.5 29t68 27q-11 -43 -19 -114.5t-8 -125.5q0 -31 4 -46.5t19 -36.5q21 12 37 36t38 76l5 12
q-34 26 -34 61q0 32 9 69t17 50t12 16t31.5 12.5t37.5 12.5t18 3q12 0 21 -17.5t9 -44.5q0 -38 -9 -75l16 9z" />
    <glyph glyph-name="w" unicode="w" horiz-adv-x="555" 
d="M329 126v-21q28 26 44 54.5t25 72.5q-22 14 -31 28t-9 34q0 25 9 63t18.5 59.5t42.5 35t47 13.5q15 0 27 -20t12 -47l-3 -46l-2 -18q13 7 24 19q0 -47 -10 -75t-32 -50q-14 -72 -33 -108t-64.5 -82t-64.5 -46q-13 0 -37.5 10t-38.5 24t-14 83l1 24l1 32
q-17 -38 -27.5 -55.5t-42.5 -65t-35 -50.5t-8 -3q-11 0 -31 11.5t-34 24.5t-18 27.5t-4 50.5q0 51 14.5 148.5t47.5 175.5q78 -36 78 -61q0 -27 -7.5 -91.5t-10 -78t-10.5 -47.5q33 30 57 78.5t53 146.5q51 -27 62 -44t11 -66l-1 -29z" />
    <glyph glyph-name="x" unicode="x" horiz-adv-x="403" 
d="M131 433q18 -20 27 -34t47 -81q37 47 64 72.5t62 45.5q21 -27 30.5 -47t18.5 -59q-33 -25 -68 -56t-56 -56q16 -27 22 -40t16 -42l8 -21q18 16 23 39q20 -21 28 -35.5t8 -30.5q0 -38 -34.5 -69t-46.5 -31q-8 0 -21.5 11.5t-20.5 21t-17.5 29t-23.5 45.5l-14 32
q-24 -29 -39 -51.5t-52 -87.5q-27 17 -43 33t-30 40q9 21 21.5 41t30.5 46l56 78l-41 66q-9 15 -15 29.5t-6 23.5q0 14 20.5 41.5t45.5 46.5z" />
    <glyph glyph-name="y" unicode="y" horiz-adv-x="412" 
d="M301 446q40 -23 55 -40t16 -30t1 -36q0 -45 -17 -135t-38.5 -159.5t-44.5 -123.5t-37.5 -71t-36.5 -32t-32 -15t-29.5 11.5t-29.5 23.5t-19 31t-9 27q0 15 21.5 38t49.5 38q3 -24 25 -52l11 72q5 27 10.5 49t17.5 62l-20 -24q-23 -29 -30.5 -37.5t-24 -24.5t-24 -23
t-11.5 -7q-8 -1 -24.5 12.5t-30.5 31t-14 45.5q0 73 25 174.5t65 184.5q37 -23 50.5 -37t13.5 -28q0 -33 -11.5 -98.5t-18.5 -95.5t-21 -71q34 22 56.5 50t43 72t33.5 90.5t29 127.5z" />
    <glyph glyph-name="z" unicode="z" horiz-adv-x="417" 
d="M253 29l10 -10q16 11 24.5 23t19.5 32q45 -34 45 -79q0 -31 -24 -57.5t-52 -26.5q-30 0 -69.5 24.5t-83.5 70.5q-15 -10 -25 -14.5t-17 -4.5q-15 0 -25.5 14t-25 53.5t-14.5 49.5q0 7 18.5 14t39.5 7q10 0 18.5 -1t26.5 -5q24 26 30.5 34.5t18.5 28.5q-19 7 -25.5 15.5
t-6.5 27.5q0 35 14 65q19 -11 30 -16t42 -16l13 25q9 17 12.5 26t8.5 25q-19 4 -34 4q-51 0 -106 -33q-42 31 -42 77l1 12q73 50 173 50q136 0 136 -78q0 -26 -11 -54t-45 -87l16 -1l50 4q-13 -25 -19.5 -35t-20 -29t-19 -23t-26.5 -4q-15 0 -38 4q-8 -8 -30.5 -32.5
t-34.5 -38.5l12 -10q11 -9 14.5 -12t20.5 -19z" />
    <glyph glyph-name="braceleft" unicode="{" 
d="M329 475l-26 -113q-11 -49 -29 -74t-56 -45q36 -25 36 -66q0 -26 -7 -54l-26 -115l-7 -43q0 -23 19 -32.5t65 -9.5l-26 -112l-31 -1q-58 0 -82 2t-55.5 14.5t-31.5 70.5q0 24 8 59l34 147q3 17 4 23.5t1 21.5q0 36 -41 47l24 103q60 14 76 86l36 155q17 71 49 98t62.5 34
t96.5 7l50 -1l-28 -119q-59 0 -81.5 -16t-33.5 -67z" />
    <glyph glyph-name="bar" unicode="|" 
d="M188 667h131v-834h-131v834z" />
    <glyph glyph-name="braceright" unicode="}" 
d="M137 12l26 113q11 49 29 74t56 45q-37 26 -37 63q0 17 1 25t6 32l27 115l7 44q0 23 -18.5 32t-65.5 9l26 113h31q58 0 82 -2t55.5 -14.5t31.5 -70.5q0 -24 -8 -59l-34 -146q-3 -14 -4.5 -26.5t-1.5 -16.5q0 -38 42 -49l-24 -104q-60 -14 -77 -85l-35 -155
q-18 -79 -55.5 -104t-67 -30t-104.5 -5l-31 1l28 119q60 0 81.5 15.5t33.5 66.5z" />
    <glyph glyph-name="asciitilde" unicode="~" horiz-adv-x="667" 
d="M162 560l-65 53q54 130 145 130q22 0 43.5 -6.5t63.5 -26t59 -25t29 -5.5q43 0 77 66l65 -54q-28 -69 -64.5 -98.5t-91.5 -29.5q-16 0 -32 5t-31.5 12t-57 25.5t-65.5 18.5q-23 0 -39 -14t-36 -51z" />
    <glyph glyph-name="nonbreakingspace" unicode="&#xa0;" 
 />
    <glyph glyph-name="exclamdown" unicode="&#xa1;" horiz-adv-x="307" 
d="M110 -208q-36 15 -61 38q-14 11 -14 43q0 65 29 220.5t62 266.5q19 -10 43 -31t27 -26.5t3 -16.5q0 -84 -9.5 -148.5t-12.5 -80.5t-17 -81t-25 -106t-25 -78zM174 508q21 0 34 -14t13 -38q0 -27 -16 -46t-39 -19q-21 0 -35.5 15.5t-14.5 38.5q0 26 17.5 44.5t40.5 18.5z
" />
    <glyph glyph-name="cent" unicode="&#xa2;" 
d="M362 615l-15 -55q40 -18 48 -28t8 -42q0 -67 -17.5 -83.5t-43 -24.5t-49.5 -8l-14 2q15 17 23 40.5t8 48.5l-1 16q-35 -30 -56 -77t-21 -96q0 -16 2 -30.5t8 -35.5h13q28 0 57.5 7.5t77.5 27.5l-21 -65l-11 -36q-4 -13 -9.5 -16.5t-46.5 -20t-73 -16.5h-10l-17 -59h-36
l20 64q-40 19 -57 44.5t-17 68.5q0 115 62 214t142 110l13 51z" />
    <glyph glyph-name="sterling" unicode="&#xa3;" 
d="M378 283h-105q-14 -67 -23.5 -91t-35.5 -58q22 -5 48 -11.5t44.5 -12t34.5 -8.5t31 -3q31 0 45 3.5t68 20.5q-9 -18 -18.5 -31.5t-38.5 -46.5t-46 -48t-27 -15q-12 0 -34.5 5.5t-52.5 11.5l-56 14l-54 17l-29 9q-64 -54 -96 -54q-18 0 -33 8.5t-15 18.5l5 37l5 28
q7 37 9.5 40.5t24.5 15t32.5 14.5t34.5 3q14 21 27 59.5t17 75.5h-110l14 49h107l6 32q18 96 33 135t70.5 111.5t136.5 72.5q51 0 83 -41t32 -107q0 -41 -7.5 -64t-15.5 -28.5t-27.5 -19.5t-37 -23t-58.5 -26q37 72 37 164q0 19 -2 30t-10 31q-25 -8 -45.5 -34t-32.5 -60
t-16.5 -56.5t-10.5 -75.5l-3 -22l-3 -21h111z" />
    <glyph glyph-name="currency" unicode="&#xa4;" horiz-adv-x="707" 
d="M54 108l97 99q-40 63 -40 134q0 35 9 63t34 71l-101 100l68 68l102 -101q46 25 72.5 33t65.5 8q53 0 128 -40l101 99l68 -67l-99 -98q44 -71 44 -137q0 -36 -8 -62.5t-33 -70.5l99 -98l-67 -68l-99 98q-64 -44 -132 -44q-65 0 -144 43l-98 -97zM357 473
q-54 0 -92.5 -38.5t-38.5 -93.5t38 -94t93 -39t93.5 38.5t38.5 94.5q0 55 -38.5 93.5t-93.5 38.5z" />
    <glyph glyph-name="yen" unicode="&#xa5;" horiz-adv-x="625" 
d="M171 0l53 233h-194l12 52h178l-38 107h-142l12 51h113l-79 221h143l94 -299l231 302h145l-183 -224h114l-11 -51h-144l-88 -107h185l-12 -52h-202l-53 -233h-134z" />
    <glyph glyph-name="brokenbar" unicode="&#xa6;" 
d="M188 667h131v-347h-131v347zM188 153h131v-320h-131v320z" />
    <glyph glyph-name="section" unicode="&#xa7;" horiz-adv-x="481" 
d="M355 426l25 -25q69 -70 69 -134q0 -37 -23 -59.5t-94 -54.5q41 -49 56 -84.5t15 -84.5t-11 -68t-53 -37.5t-94 -18.5q-32 0 -73.5 11t-79.5 29t-58.5 37.5t-20.5 38.5q0 12 6 34t16 46q67 -49 115.5 -71.5t87.5 -22.5q25 0 45.5 9t20.5 21q-1 5 -7 16.5t-15.5 30
t-10 19.5t-24.5 26l-67 66l-83 89q-22 24 -28.5 36.5t-6.5 31.5q0 45 42 77l61 39l38 28l-44 64q-28 42 -27 54q0 9 8 25t23.5 37.5t25 30t30 17t34 13t21.5 4.5q27 0 74.5 -18t94.5 -46t47 -77q0 -11 -2 -25t-8 -42q-25 20 -43 31.5t-61 35t-59 30t-31 6.5t-25 -7t-10 -19
q-1 -7 10 -27t27 -41l16 -20l26 -25zM197 284l17 -18l46 -47l21 -20q3 0 12 9t28 30.5t22.5 28t3.5 15.5q0 11 -5 18.5t-29 33t-36.5 39t-37.5 37.5l-41 -45q-22 -25 -22 -40q0 -20 21 -41z" />
    <glyph glyph-name="dieresis" unicode="&#xa8;" 
d="M286 614q52 0 52 -48q0 -68 -51 -68t-51 50q0 66 50 66zM429 619q23 0 38.5 -13.5t15.5 -35.5q0 -28 -15 -47t-38 -19t-38 12t-15 32q0 32 14.5 51.5t37.5 19.5z" />
    <glyph glyph-name="copyright" unicode="&#xa9;" horiz-adv-x="773" 
d="M509 296h61q0 -74 -50 -118.5t-129 -44.5q-85 0 -137.5 55.5t-52.5 144.5q0 90 53 147t138 57q72 0 120.5 -39t53.5 -102h-61q-8 34 -37.5 53.5t-72.5 19.5q-53 0 -84 -36t-31 -100q0 -60 30 -96t81 -36q50 0 81 25t37 70zM391 680q143 0 243.5 -101.5t100.5 -244.5
q0 -144 -100.5 -245.5t-243.5 -101.5q-144 0 -245.5 101.5t-101.5 245.5t101 245t246 101zM391 623q-119 0 -202 -84t-83 -205q0 -120 83 -205t202 -85q116 0 199 85t83 205q0 119 -83 204t-199 85z" />
    <glyph glyph-name="ordfeminine" unicode="&#xaa;" horiz-adv-x="347" 
d="M336 350l-13 -57h-304l13 57h304zM332 405h-85l-1 14l1 13v7q-36 -28 -52.5 -35t-47.5 -7q-83 0 -83 60q0 45 27 66.5t42.5 25.5t71.5 12l27 6q34 7 41.5 12.5t7.5 20.5q0 31 -45 31q-47 0 -62 -44h-70q15 50 49.5 72t99.5 22q46 0 73 -20t27 -55l-6 -36l-22 -99
q-4 -17 -4 -30q0 -22 11 -36zM265 523l4 14q-16 -7 -23.5 -9t-60.5 -8.5t-53 -48.5q0 -28 39 -28q70 0 94 80z" />
    <glyph glyph-name="guillemotleft" unicode="&#xab;" horiz-adv-x="590" 
d="M141 268l-10 -5q25 -21 61.5 -56t44 -46t7.5 -30l3 -44l1 -27q0 -16 -10 -16q-19 0 -82 66.5t-88 109.5t-25 49q0 11 32.5 40.5t74.5 60.5t78 55t47 29l8 2q11 0 11 -10q0 -7 -8.5 -29t-25 -57.5t-27 -42t-71.5 -38.5l-10 -5zM375 268l-11 -5q28 -22 63.5 -56t42.5 -45.5
t7 -30.5l3 -44l1 -27q0 -16 -10 -16q-19 0 -82 66.5t-88 109.5t-25 49q0 11 32.5 40.5t72.5 58.5t79 55.5t49 30.5l8 2q11 0 11 -10q0 -7 -12.5 -37.5t-25 -57t-25 -34.5t-70.5 -38l-10 -5z" />
    <glyph glyph-name="logicalnot" unicode="&#xac;" 
d="M343 0v172h-306v115h433v-287h-127z" />
    <glyph glyph-name="registered" unicode="&#xae;" horiz-adv-x="773" 
d="M243 528h164q140 0 140 -108q0 -65 -67 -94q37 -14 49 -37t12 -88q0 -26 1.5 -35.5t8.5 -24.5h-75q-7 13 -9 24t-2 52q0 48 -18.5 66.5t-65.5 18.5h-60v-161h-78v387zM321 479v-130h66q82 0 82 68q0 62 -76 62h-72zM391 680q143 0 243.5 -101.5t100.5 -244.5
q0 -144 -100.5 -245.5t-243.5 -101.5q-144 0 -245.5 101.5t-101.5 245.5t101 245t246 101zM391 623q-119 0 -202 -84t-83 -205q0 -120 83 -205t202 -85q116 0 199 85t83 205q0 119 -83 204t-199 85z" />
    <glyph glyph-name="macron" unicode="&#xaf;" 
d="M418 613q45 0 66 -3t21 -13q0 -40 -14 -54t-57 -14l-27 -1l-83 -1q-76 0 -91 4.5t-15 25.5q0 40 41 46l43 4l53 3l34 2z" />
    <glyph glyph-name="macron" unicode="&#x2c9;" 
d="M418 613q45 0 66 -3t21 -13q0 -40 -14 -54t-57 -14l-27 -1l-83 -1q-76 0 -91 4.5t-15 25.5q0 40 41 46l43 4l53 3l34 2z" />
    <glyph glyph-name="degree" unicode="&#xb0;" 
d="M253 670q65 0 109 -44t44 -110q0 -63 -45.5 -107.5t-108.5 -44.5q-62 0 -106.5 44.5t-44.5 108.5t44.5 108.5t107.5 44.5zM253 618q-41 0 -70 -30t-29 -71t29 -71t69 -30q42 0 71.5 29.5t29.5 70.5q0 42 -29 72t-71 30z" />
    <glyph glyph-name="plusminus" unicode="&#xb1;" 
d="M17 392h203v197h65v-197h205v-63h-205v-192h-65v192h-203v63zM17 95h473v-63h-473v63z" />
    <glyph glyph-name="twosuperior" unicode="&#xb2;" horiz-adv-x="313" 
d="M168 348l-9 -13l36 -19l8 11q10 13 21 31q33 -11 33 -47q0 -26 -18 -43t-47 -17q-35 0 -87 29q-34 -21 -62 -21q-15 0 -15 33q0 14 2 33.5t5 24.5t29 5q12 0 28 -4q31 41 48 67t37 65t20 52q0 32 -65 42v-9v-21q0 -27 -2 -36t-23 -21t-46 -15q-5 19 -5 32q0 66 25.5 99.5
t31.5 35.5t25 2q50 0 95 -32t45 -69q0 -20 -11 -44.5t-36 -61.5l-44 -62l-9 -13z" />
    <glyph glyph-name="threesuperior" unicode="&#xb3;" horiz-adv-x="313" 
d="M73 538q4 28 10.5 48t13 26t30.5 13q42 15 82 15q68 0 68 -44q0 -21 -23 -53t-60 -62q61 -24 61 -85q0 -54 -38 -97t-87 -43q-55 0 -99 66q10 14 22.5 26t32.5 25q13 -33 26.5 -46.5t39.5 -18.5q30 42 30 76q0 36 -47 53q-28 -18 -48 -18q-11 0 -11 13q0 10 4 23.5
t11 29.5q7 12 24 12l17 -2q48 40 60 78l-14 1q-38 0 -105 -36z" />
    <glyph glyph-name="acute" unicode="&#xb4;" 
d="M375 637q55 0 55 -29q0 -33 -26.5 -50.5t-35.5 -21.5l-31.5 -14t-27.5 -10q-19 0 -19 20q0 19 26 54.5t35.5 43t23.5 7.5z" />
    <glyph glyph-name="mu" unicode="&#xb5;" 
d="M40 -169v649h111v-257q0 -46 4 -63.5t27.5 -47.5t70.5 -30t75 40t28 107v251h111v-480h-111v74q-33 -85 -104 -85q-36 0 -58 14t-43 50v-222h-111z" />
    <glyph glyph-name="paragraph" unicode="&#xb6;" horiz-adv-x="601" 
d="M142 -113l99 431l-13 -1q-68 0 -108 35t-40 95q0 46 23 92.5t74.5 87t171.5 40.5h250l-12 -51h-54l-168 -729h-64l168 729h-94l-169 -729h-64z" />
    <glyph glyph-name="periodcentered" unicode="&#xb7;" horiz-adv-x="105" 
d="M92 271q54 0 54 -55q0 -27 -13.5 -42.5t-36.5 -15.5q-54 0 -54 53q0 60 50 60z" />
    <glyph glyph-name="periodcentered" unicode="&#x2219;" horiz-adv-x="105" 
d="M92 271q54 0 54 -55q0 -27 -13.5 -42.5t-36.5 -15.5q-54 0 -54 53q0 60 50 60z" />
    <glyph glyph-name="cedilla" unicode="&#xb8;" 
d="M181 -203h-12q26 25 34 63l-12 1l-16 -2h-12q19 43 26 77q36 13 65 13q39 0 39 -32q0 -27 -14 -56.5t-37 -46.5t-61 -17z" />
    <glyph glyph-name="onesuperior" unicode="&#xb9;" horiz-adv-x="313" 
d="M216 513l-6 -39q-13 -75 -20.5 -111t-26.5 -103q-57 16 -57 46q0 11 5.5 44t21.5 117l21 92q-9 -9 -25 -20t-35 -20q-11 29 -11 50q0 15 39.5 47t56.5 32q19 0 34.5 -15.5t15.5 -23.5l-6 -56z" />
    <glyph glyph-name="ordmasculine" unicode="&#xba;" horiz-adv-x="347" 
d="M333 350l-13 -57h-304l13 57h304zM263 681q50 0 79.5 -28.5t29.5 -79.5q0 -74 -53.5 -125.5t-129.5 -51.5q-50 0 -81 29t-31 78q0 74 54 126t132 52zM247 629q-41 0 -68 -36t-27 -92q0 -24 14 -38t37 -14q40 0 67.5 36.5t27.5 88.5q0 55 -51 55z" />
    <glyph glyph-name="guillemotright" unicode="&#xbb;" horiz-adv-x="590" 
d="M448 232l11 5q-34 27 -65.5 57.5t-39 43t-10 27t-2.5 71.5q0 20 10 20t29.5 -16t50.5 -48t58 -67.5t39.5 -57.5t14.5 -27t3 -9q0 -10 -34 -40.5t-80.5 -64.5t-79.5 -55.5t-39 -24.5l-8 -2q-11 0 -11 10q0 4 4 15t20 52t27 52.5t82 47.5l10 5zM215 232l11 5
q-34 27 -65.5 57.5t-39 43t-10 27t-2.5 71.5q0 20 10 20t29.5 -16t49.5 -47.5t57 -67t40 -58t15 -27.5t3 -9q0 -11 -32.5 -40.5t-76.5 -61t-80.5 -56t-42.5 -27.5l-8 -2q-11 0 -11 10q0 3 4 14.5t19.5 52t28 53t80.5 47.5l11 5z" />
    <glyph glyph-name="onequarter" unicode="&#xbc;" horiz-adv-x="688" 
d="M216 513l-6 -39q-13 -75 -20.5 -111t-26.5 -103q-57 16 -57 46q0 11 5.5 44t21.5 117l21 92q-9 -9 -25 -20t-35 -20q-11 29 -11 50q0 15 39.5 47t56.5 32q19 0 34.5 -15.5t15.5 -23.5l-6 -56zM186 27l5 12l29 73l39 97l67 163q61 146 91 226q38 -33 38 -57
q0 -11 -8 -39.5t-38 -118.5t-92 -228t-70 -149t-21 -11q-14 0 -33 25zM568 374q26 -12 37 -23.5t11 -26.5l-6 -52q-5 -39 -7 -50.5t-8 -37.5q14 0 29.5 4t32.5 8q-21 -43 -35.5 -57t-39.5 -14q-3 -34 -14 -71.5t-26 -64.5q-25 10 -35 17t-10 15l1 20q0 37 3.5 51.5t7.5 33.5
q-69 8 -85 14.5t-16 27.5q0 32 19.5 83t47.5 95q35 -20 35 -42q0 -16 -11.5 -50t-26.5 -62q11 -3 21 -5t27 -2q21 134 48 189z" />
    <glyph glyph-name="onehalf" unicode="&#xbd;" horiz-adv-x="688" 
d="M216 513l-6 -39q-13 -75 -20.5 -111t-26.5 -103q-57 16 -57 46q0 11 5.5 44t21.5 117l21 92q-9 -9 -25 -20t-35 -20q-11 29 -11 50q0 15 39.5 47t56.5 32q19 0 34.5 -15.5t15.5 -23.5l-6 -56zM186 27l5 12l29 73l39 97l67 163q61 146 91 226q38 -33 38 -57
q0 -11 -8 -39.5t-38 -118.5t-92 -228t-70 -149t-21 -11q-14 0 -33 25zM542 82l-10 -13q9 -4 15.5 -7t21.5 -13l8 11l21 31q33 -11 33 -47q0 -26 -18 -43t-47 -17q-18 0 -38.5 7t-48.5 22q-34 -21 -62 -21q-15 0 -15 34q0 15 2 33.5t5 24t29 5.5q13 0 28 -5q33 43 47.5 65.5
t31 54t21.5 44.5t5 20q0 32 -66 43l1 -29q0 -28 -2 -37.5t-22.5 -21.5t-46.5 -15q-5 20 -5 33q0 63 25.5 97.5t31.5 36.5t25 2q50 0 95 -32t45 -69q0 -36 -47 -106l-44 -62l-9 -13z" />
    <glyph glyph-name="threequarters" unicode="&#xbe;" horiz-adv-x="688" 
d="M73 538q4 28 10.5 48t13 26t30.5 13q42 15 82 15q68 0 68 -44q0 -21 -23 -53t-60 -62q61 -24 61 -85q0 -54 -38 -97t-87 -43q-55 0 -99 66q10 14 22.5 26t32.5 25q13 -33 26.5 -46.5t39.5 -18.5q30 42 30 76q0 36 -47 53q-28 -18 -48 -18q-11 0 -11 13q0 10 4 23.5
t11 29.5q7 12 24 12l17 -2q48 40 60 78l-14 1q-38 0 -105 -36zM201 63l20 49q48 121 60.5 152t60.5 145t76 189q37 -33 37 -57q0 -18 -6 -38.5t-31.5 -93.5t-51.5 -138.5t-67.5 -158t-50.5 -105t-22 -12.5q-12 0 -33 25l-6 7l5 12zM568 374q26 -12 37 -23.5t11 -26.5
q0 -19 -6 -60.5t-14 -79.5q15 0 62 12q-21 -43 -36 -57t-39 -14q-3 -34 -14 -71.5t-26 -64.5q-25 10 -35 17t-10 15l1 20q0 30 1 39q5 20 10 46q-69 8 -85 14.5t-16 27.5q0 32 19 82.5t48 95.5q35 -21 35 -42q0 -16 -11.5 -50t-26.5 -62q11 -3 21 -5t27 -2q20 133 47 189z
" />
    <glyph glyph-name="questiondown" unicode="&#xbf;" horiz-adv-x="391" 
d="M155 -91l13 -1q39 0 91 21l64 30l3 -27q0 -47 -23 -77.5t-69.5 -46.5t-89.5 -16q-45 0 -76.5 25.5t-31.5 62.5q0 23 11 48t53 90.5t64.5 115t22.5 80.5q0 7 -0.5 13.5t-7.5 28.5l-4 13q18 27 36 42.5t62 40.5q33 -38 33 -106q0 -61 -24 -117.5t-71.5 -125t-55.5 -94.5z
M261 508q51 0 51 -52q0 -26 -16 -44t-39 -18q-51 0 -51 50q0 30 15 47t40 17z" />
    <glyph glyph-name="Agrave" unicode="&#xc0;" horiz-adv-x="539" 
d="M375 155h-15q-14 0 -32 2t-50.5 5t-52 5.5t-33.5 5.5q-7 -25 -17.5 -70t-23.5 -107.5t-19 -134.5q-70 36 -92 54.5t-22 42.5q0 19 23 118l33 122q-42 16 -55.5 37.5t-13.5 72.5q0 12 1 20t5 24q14 -18 34 -28t69 -23q24 76 59 145.5t79 126.5l29 36q47 59 59.5 71
t24.5 12q11 0 31 -8t43 -21.5t33 -24.5t20 -48t17.5 -113t7.5 -133q0 -167 -53 -354q-38 18 -62 33.5t-47 37.5l17 73zM390 266v30v136q0 47 -9 121q-49 -71 -89 -145t-58 -128q62 -15 130 -15zM410 853q10 0 17.5 -5t33.5 -32t36 -41.5t10 -27.5q0 -19 -22 -19
q-21 0 -59 16.5t-64 37.5t-26 38q0 22 25 27z" />
    <glyph glyph-name="Aacute" unicode="&#xc1;" horiz-adv-x="539" 
d="M375 155h-15q-14 0 -32 2t-50.5 5t-52 5.5t-33.5 5.5q-7 -25 -17.5 -70t-23.5 -107.5t-19 -134.5q-70 36 -92 54.5t-22 42.5q0 19 23 118l33 122q-42 16 -55.5 37.5t-13.5 72.5q0 12 1 20t5 24q14 -18 34 -28t69 -23q24 76 59 145.5t79 126.5l29 36q47 59 59.5 71
t24.5 12q11 0 31 -8t43 -21.5t33 -24.5t20 -48t17.5 -113t7.5 -133q0 -167 -53 -354q-38 18 -62 33.5t-47 37.5l17 73zM390 266v30v136q0 47 -9 121q-49 -71 -89 -145t-58 -128q62 -15 130 -15zM433 853l49 -6q25 -5 25 -27q0 -24 -34 -46t-65.5 -34t-49.5 -12q-22 0 -22 19
q0 12 4 19.5t29 35.5t38.5 39.5t25.5 11.5z" />
    <glyph glyph-name="Acircumflex" unicode="&#xc2;" horiz-adv-x="539" 
d="M375 155h-15q-14 0 -32 2t-50.5 5t-52 5.5t-33.5 5.5q-7 -25 -17.5 -70t-23.5 -107.5t-19 -134.5q-70 36 -92 54.5t-22 42.5q0 19 23 118l33 122q-42 16 -55.5 37.5t-13.5 72.5q0 12 1 20t5 24q14 -18 34 -28t69 -23q24 76 59 145.5t79 126.5l29 36q47 59 59.5 71
t24.5 12q11 0 31 -8t43 -21.5t33 -24.5t20 -48t17.5 -113t7.5 -133q0 -167 -53 -354q-38 18 -62 33.5t-47 37.5l17 73zM390 266v30v136q0 47 -9 121q-49 -71 -89 -145t-58 -128q62 -15 130 -15zM406 781l-26 -22q-20 -18 -30.5 -23.5t-23.5 -5.5q-11 0 -19 8t-8 19
q0 10 9.5 22t45.5 46.5t66 34.5q20 0 30.5 -5t50 -32t39.5 -53q0 -17 -11 -29t-26 -12q-14 0 -42 16z" />
    <glyph glyph-name="Atilde" unicode="&#xc3;" horiz-adv-x="539" 
d="M375 155h-15q-14 0 -32 2t-50.5 5t-52 5.5t-33.5 5.5q-7 -25 -17.5 -70t-23.5 -107.5t-19 -134.5q-70 36 -92 54.5t-22 42.5q0 19 23 118l33 122q-42 16 -55.5 37.5t-13.5 72.5q0 12 1 20t5 24q14 -18 34 -28t69 -23q24 76 59 145.5t79 126.5l29 36q47 59 59.5 71
t24.5 12q11 0 31 -8t43 -21.5t33 -24.5t20 -48t17.5 -113t7.5 -133q0 -167 -53 -354q-38 18 -62 33.5t-47 37.5l17 73zM390 266v30v136q0 47 -9 121q-49 -71 -89 -145t-58 -128q62 -15 130 -15zM555 850q19 0 19 -20q0 -11 -13.5 -31.5t-37 -42.5t-55.5 -22q-16 0 -26 3
t-39.5 18.5t-42.5 15.5q-18 0 -39 -16.5t-28 -16.5q-9 0 -14.5 5.5t-5.5 13.5q0 11 9.5 27.5t39 50t61.5 33.5t62 -19.5t37 -22.5t18 -3t15 2t27 21q8 4 13 4z" />
    <glyph glyph-name="Adieresis" unicode="&#xc4;" horiz-adv-x="523" 
d="M375 155h-15q-14 0 -32 2t-50.5 5t-52 5.5t-33.5 5.5q-7 -25 -17.5 -70t-23.5 -107.5t-19 -134.5q-70 36 -92 54.5t-22 42.5q0 19 23 118l33 122q-42 16 -55.5 37.5t-13.5 72.5q0 12 1 20t5 24q14 -18 34 -28t69 -23q24 76 59 145.5t79 126.5l29 36q47 59 59.5 71
t24.5 12q11 0 31 -8t43 -21.5t33 -24.5t20 -48t17.5 -113t7.5 -133q0 -167 -53 -354q-38 18 -62 33.5t-47 37.5l17 73zM390 266v30v136q0 47 -9 121q-49 -71 -89 -145t-58 -128q62 -15 130 -15zM347 834q47 0 47 -44q0 -54 -49 -54t-49 41q0 57 51 57zM509 834q47 0 47 -41
q0 -57 -51 -57q-47 0 -47 37q0 61 51 61z" />
    <glyph glyph-name="Aring" unicode="&#xc5;" horiz-adv-x="523" 
d="M375 155h-15q-14 0 -32 2t-50.5 5t-52 5.5t-33.5 5.5q-7 -25 -17.5 -70t-23.5 -107.5t-19 -134.5q-70 36 -92 54.5t-22 42.5q0 19 23 118l33 122q-42 16 -55.5 37.5t-13.5 72.5q0 12 1 20t5 24q14 -18 34 -28t69 -23q24 76 59 145.5t79 126.5l29 36q47 59 59.5 71
t24.5 12q11 0 31 -8t43 -21.5t33 -24.5t20 -48t17.5 -113t7.5 -133q0 -167 -53 -354q-38 18 -62 33.5t-47 37.5l17 73zM390 266v30v136q0 47 -9 121q-49 -71 -89 -145t-58 -128q62 -15 130 -15zM449 869q33 0 55 -24t22 -60q0 -33 -23 -56t-57 -23q-31 0 -54 24t-23 58
t23.5 57.5t56.5 23.5zM448 812q-11 0 -18 -7t-7 -19q0 -11 7 -18t17 -7q11 0 18.5 7.5t7.5 18.5t-7 18t-18 7z" />
    <glyph glyph-name="AE" unicode="&#xc6;" horiz-adv-x="889" 
d="M287 165l-22 2l-67 7q-11 -27 -19.5 -60t-20.5 -92.5t-17 -92t-9 -69.5q-67 34 -90 54.5t-23 45.5q0 24 9 59.5t47 179.5q-40 15 -54 36.5t-14 70.5q0 21 5 46q19 -20 40.5 -29t64.5 -16q51 155 106.5 228.5t76.5 98.5t38 42.5t30 17.5q11 0 35.5 -10.5t47 -25.5
t29 -24.5t15.5 -47.5t16 -106t7 -130q0 -22 -2.5 -60.5t-2.5 -58.5q41 67 58.5 85t58.5 37q-79 37 -79 105q0 93 64 166t145 73q52 0 81.5 -40.5t29.5 -111.5q0 -14 -8 -23t-30.5 -22.5t-39 -19t-36.5 -5.5q16 36 16 69q0 36 -14 67q-36 -17 -61 -55t-25 -75q0 -43 32 -77
l16 5q9 4 17 4q12 0 19 -18.5t7 -49.5q0 -58 -27 -58q-9 0 -13.5 2.5t-9.5 5.5l-7 4q-38 -33 -61.5 -77.5t-23.5 -82.5l2 -25h10q43 0 89.5 13t119.5 46l-35 -77l-24 -51q-6 -14 -11 -19t-51 -20t-97 -15q-110 0 -135 101q-3 -21 -8 -37t-9 -34l-8 -31q-70 31 -109 72l11 48
l10 48q-22 0 -47 2.5t-43 4.5zM365 267h26l2 114q0 54 -2 90t-8 82q-104 -146 -145 -274q57 -12 127 -12z" />
    <glyph glyph-name="Ccedilla" unicode="&#xc7;" horiz-adv-x="476" 
d="M151 -21l30 9q-143 39 -143 194q0 100 40 212t93.5 183t89 93.5t78.5 22.5q56 0 86 -45t30 -130q0 -15 -8 -25t-35.5 -29t-46.5 -27.5t-49 -15.5q15 59 15 107q0 14 -0.5 26t-10.5 42q-66 -83 -106 -188t-40 -197q0 -20 2 -39t8 -49q140 0 247 55q-39 -111 -56.5 -130.5
t-53.5 -33.5t-78 -19q24 -6 24 -30q0 -23 -11 -51t-24.5 -45t-38 -26t-56.5 -13q23 25 36 76l-11 1q-4 0 -14.5 -2t-14.5 -4q6 12 11 37t7 41z" />
    <glyph glyph-name="Egrave" unicode="&#xc8;" horiz-adv-x="425" 
d="M169 123h22q103 0 195 51q-28 -85 -54.5 -121.5t-76 -51.5t-99.5 -15q-60 0 -96.5 35.5t-36.5 94.5q0 71 41 139.5t100 95.5q-36 8 -57 36.5t-21 69.5q0 89 64 161t144 72q50 0 81 -37.5t31 -98.5q0 -28 -8 -40t-32.5 -25t-39.5 -18t-40 -8q18 41 18 83q0 15 -1 27.5
t-5 33.5q-81 -42 -81 -133q0 -26 5 -39.5t20 -30.5q17 8 27 8q37 0 37 -67q0 -34 -6 -56q-11 -5 -20 -5q-11 0 -26 9q-51 -57 -68 -89.5t-17 -71.5v-9zM353 853q10 0 17.5 -5t33.5 -32t36 -41.5t10 -27.5q0 -19 -22 -19q-21 0 -59 16.5t-64 37.5t-26 38q0 22 25 27z" />
    <glyph glyph-name="Eacute" unicode="&#xc9;" horiz-adv-x="425" 
d="M169 123h22q103 0 195 51q-28 -85 -54.5 -121.5t-76 -51.5t-99.5 -15q-60 0 -96.5 35.5t-36.5 94.5q0 71 41 139.5t100 95.5q-36 8 -57 36.5t-21 69.5q0 89 64 161t144 72q50 0 81 -37.5t31 -98.5q0 -28 -8 -40t-32.5 -25t-39.5 -18t-40 -8q18 41 18 83q0 15 -1 27.5
t-5 33.5q-81 -42 -81 -133q0 -26 5 -39.5t20 -30.5q17 8 27 8q37 0 37 -67q0 -34 -6 -56q-11 -5 -20 -5q-11 0 -26 9q-51 -57 -68 -89.5t-17 -71.5v-9zM376 853l49 -6q25 -5 25 -27q0 -24 -34 -46t-65.5 -34t-49.5 -12q-22 0 -22 19q0 12 4 19.5t29 35.5t38.5 39.5
t25.5 11.5z" />
    <glyph glyph-name="Ecircumflex" unicode="&#xca;" horiz-adv-x="425" 
d="M169 123h22q103 0 195 51q-28 -85 -54.5 -121.5t-76 -51.5t-99.5 -15q-60 0 -96.5 35.5t-36.5 94.5q0 71 41 139.5t100 95.5q-36 8 -57 36.5t-21 69.5q0 89 64 161t144 72q50 0 81 -37.5t31 -98.5q0 -28 -8 -40t-32.5 -25t-39.5 -18t-40 -8q18 41 18 83q0 15 -1 27.5
t-5 33.5q-81 -42 -81 -133q0 -26 5 -39.5t20 -30.5q17 8 27 8q37 0 37 -67q0 -34 -6 -56q-11 -5 -20 -5q-11 0 -26 9q-51 -57 -68 -89.5t-17 -71.5v-9zM349 781l-26 -22q-20 -18 -30.5 -23.5t-23.5 -5.5q-11 0 -19 8t-8 19q0 10 9.5 22t45.5 46.5t66 34.5q20 0 30.5 -5
t50 -32t39.5 -53q0 -17 -11 -29t-26 -12q-14 0 -42 16z" />
    <glyph glyph-name="Edieresis" unicode="&#xcb;" horiz-adv-x="425" 
d="M169 123h22q103 0 195 51q-28 -85 -54.5 -121.5t-76 -51.5t-99.5 -15q-60 0 -96.5 35.5t-36.5 94.5q0 71 41 139.5t100 95.5q-36 8 -57 36.5t-21 69.5q0 89 64 161t144 72q50 0 81 -37.5t31 -98.5q0 -28 -8 -40t-32.5 -25t-39.5 -18t-40 -8q18 41 18 83q0 15 -1 27.5
t-5 33.5q-81 -42 -81 -133q0 -26 5 -39.5t20 -30.5q17 8 27 8q37 0 37 -67q0 -34 -6 -56q-11 -5 -20 -5q-11 0 -26 9q-51 -57 -68 -89.5t-17 -71.5v-9zM286 834q47 0 47 -44q0 -54 -49 -54t-49 41q0 57 51 57zM448 834q47 0 47 -41q0 -57 -51 -57q-47 0 -47 37q0 61 51 61z
" />
    <glyph glyph-name="Igrave" unicode="&#xcc;" horiz-adv-x="408" 
d="M161 91l32 105q26 87 41.5 174.5t20 120.5t4.5 69q-36 0 -69 -8t-81 -29l-22 -9q11 48 32.5 92t38.5 55t61 19t88 8q19 0 30 -4t28.5 -17t20.5 -22.5t3 -48.5q0 -100 -29 -249t-57 -217.5t-50 -92t-59 -39.5t-49 -16q-11 0 -34.5 16.5t-46 43t-37.5 67.5l-4 17
q0 9 22.5 46t40.5 57t46 36q-9 -31 -9 -55q0 -58 38 -119zM345 853q10 0 17.5 -5t33.5 -32t36 -41.5t10 -27.5q0 -19 -22 -19q-21 0 -59 16.5t-64 37.5t-26 38q0 22 25 27z" />
    <glyph glyph-name="Iacute" unicode="&#xcd;" horiz-adv-x="408" 
d="M161 91l32 105q26 87 41.5 174.5t20 120.5t4.5 69q-36 0 -69 -8t-81 -29l-22 -9q11 48 32.5 92t38.5 55t61 19t88 8q19 0 30 -4t28.5 -17t20.5 -22.5t3 -48.5q0 -100 -29 -249t-57 -217.5t-50 -92t-59 -39.5t-49 -16q-11 0 -34.5 16.5t-46 43t-37.5 67.5l-4 17
q0 9 22.5 46t40.5 57t46 36q-9 -31 -9 -55q0 -58 38 -119zM368 853l49 -6q25 -5 25 -27q0 -24 -34 -46t-65.5 -34t-49.5 -12q-22 0 -22 19q0 12 4 19.5t29 35.5t38.5 39.5t25.5 11.5z" />
    <glyph glyph-name="Icircumflex" unicode="&#xce;" horiz-adv-x="408" 
d="M161 91l32 105q26 87 41.5 174.5t20 120.5t4.5 69q-36 0 -69 -8t-81 -29l-22 -9q11 48 32.5 92t38.5 55t61 19t88 8q19 0 30 -4t28.5 -17t20.5 -22.5t3 -48.5q0 -100 -29 -249t-57 -217.5t-50 -92t-59 -39.5t-49 -16q-11 0 -34.5 16.5t-46 43t-37.5 67.5l-4 17
q0 9 22.5 46t40.5 57t46 36q-9 -31 -9 -55q0 -58 38 -119zM340 781l-26 -22q-20 -18 -30.5 -23.5t-23.5 -5.5q-11 0 -19 8t-8 19q0 10 9.5 22t45.5 46.5t66 34.5q20 0 30.5 -5t50 -32t39.5 -53q0 -17 -11 -29t-26 -12q-14 0 -42 16z" />
    <glyph glyph-name="Idieresis" unicode="&#xcf;" horiz-adv-x="408" 
d="M161 91l32 105q26 87 41.5 174.5t20 120.5t4.5 69q-36 0 -69 -8t-81 -29l-22 -9q11 48 32.5 92t38.5 55t61 19t88 8q19 0 30 -4t28.5 -17t20.5 -22.5t3 -48.5q0 -100 -29 -249t-57 -217.5t-50 -92t-59 -39.5t-49 -16q-11 0 -34.5 16.5t-46 43t-37.5 67.5l-4 17
q0 9 22.5 46t40.5 57t46 36q-9 -31 -9 -55q0 -58 38 -119zM292 834q47 0 47 -44q0 -54 -49 -54t-49 41q0 57 51 57zM427 834q47 0 47 -41q0 -57 -51 -57q-47 0 -47 37q0 61 51 61z" />
    <glyph glyph-name="Eth" unicode="&#xd0;" horiz-adv-x="688" 
d="M142 667h267q126 0 192 -60t66 -175q0 -78 -30 -160.5t-84 -145t-127.5 -94.5t-174.5 -32h-263l67 292h-65l23 102h66zM210 394h92l-24 -102h-91l-42 -182h119q56 0 97 15t79 51.5t64 100t26 125.5q0 155 -170 155h-112z" />
    <glyph glyph-name="Ntilde" unicode="&#xd1;" horiz-adv-x="535" 
d="M380 518q-86 -67 -145.5 -183t-76.5 -179t-17 -176q-105 47 -105 78q0 22 4 67.5t11.5 101.5t23.5 134t37 155.5t30 104t29 71.5q48 -21 67 -34t19 -37q0 -30 -5.5 -59.5t-23.5 -114.5q39 64 57 90t49.5 66t54 62t33.5 22q5 0 12.5 -3.5t32.5 -20.5t32.5 -25.5t7.5 -24.5
q0 -77 -24.5 -201.5t-73.5 -293.5q23 0 36 3t38 14q-30 -86 -55 -117.5t-64 -31.5q-37 0 -60 28t-23 72q0 33 9 88.5t31.5 152t58.5 191.5zM554 850q19 0 19 -20q0 -11 -13.5 -31.5t-37 -42.5t-55.5 -22q-16 0 -26 3t-39.5 18.5t-42.5 15.5q-18 0 -39 -16.5t-28 -16.5
q-9 0 -14.5 5.5t-5.5 13.5q0 11 9.5 27.5t39 50t61.5 33.5t62 -19.5t37 -22.5t18 -3t15 2t27 21q8 4 13 4z" />
    <glyph glyph-name="Ograve" unicode="&#xd2;" horiz-adv-x="567" 
d="M521 538l9 9l15 17l2 -23q0 -46 -20 -77l1 -16q0 -31 -16 -130t-56.5 -169.5t-105.5 -117.5t-124 -47q-15 0 -35.5 8t-83.5 51.5t-63 216.5q0 126 54 244.5t143 187.5q32 -22 48.5 -39.5t39.5 -54.5q9 46 17 63.5t28 33.5q76 0 106 -32t41 -125zM328 590
q-66 -36 -109 -130.5t-43 -204.5q0 -138 67 -171q65 39 107 126.5t56 210.5q-15 -5 -20 -6.5t-11 -1.5q-10 0 -18 11.5t-21 46.5t-13 69q0 10 1 20t4 30zM425 853q10 0 17.5 -5t33.5 -32t36 -41.5t10 -27.5q0 -19 -22 -19q-21 0 -59 16.5t-64 37.5t-26 38q0 22 25 27z" />
    <glyph glyph-name="Oacute" unicode="&#xd3;" horiz-adv-x="567" 
d="M521 538l9 9l15 17l2 -23q0 -46 -20 -77l1 -16q0 -31 -16 -130t-56.5 -169.5t-105.5 -117.5t-124 -47q-15 0 -35.5 8t-83.5 51.5t-63 216.5q0 126 54 244.5t143 187.5q32 -22 48.5 -39.5t39.5 -54.5q9 46 17 63.5t28 33.5q76 0 106 -32t41 -125zM328 590
q-66 -36 -109 -130.5t-43 -204.5q0 -138 67 -171q65 39 107 126.5t56 210.5q-15 -5 -20 -6.5t-11 -1.5q-10 0 -18 11.5t-21 46.5t-13 69q0 10 1 20t4 30zM448 853l49 -6q25 -5 25 -27q0 -24 -34 -46t-65.5 -34t-49.5 -12q-22 0 -22 19q0 12 4 19.5t29 35.5t38.5 39.5
t25.5 11.5z" />
    <glyph glyph-name="Ocircumflex" unicode="&#xd4;" horiz-adv-x="567" 
d="M521 538l9 9l15 17l2 -23q0 -46 -20 -77l1 -16q0 -31 -16 -130t-56.5 -169.5t-105.5 -117.5t-124 -47q-15 0 -35.5 8t-83.5 51.5t-63 216.5q0 126 54 244.5t143 187.5q32 -22 48.5 -39.5t39.5 -54.5q9 46 17 63.5t28 33.5q76 0 106 -32t41 -125zM328 590
q-66 -36 -109 -130.5t-43 -204.5q0 -138 67 -171q65 39 107 126.5t56 210.5q-15 -5 -20 -6.5t-11 -1.5q-10 0 -18 11.5t-21 46.5t-13 69q0 10 1 20t4 30zM420 781l-26 -22q-20 -18 -30.5 -23.5t-23.5 -5.5q-11 0 -19 8t-8 19q0 10 9.5 22t45.5 46.5t66 34.5q20 0 30.5 -5
t50 -32t39.5 -53q0 -17 -11 -29t-26 -12q-14 0 -42 16z" />
    <glyph glyph-name="Otilde" unicode="&#xd5;" horiz-adv-x="567" 
d="M521 538l9 9l15 17l2 -23q0 -46 -20 -77l1 -16q0 -31 -16 -130t-56.5 -169.5t-105.5 -117.5t-124 -47q-15 0 -35.5 8t-83.5 51.5t-63 216.5q0 126 54 244.5t143 187.5q32 -22 48.5 -39.5t39.5 -54.5q9 46 17 63.5t28 33.5q76 0 106 -32t41 -125zM328 590
q-66 -36 -109 -130.5t-43 -204.5q0 -138 67 -171q65 39 107 126.5t56 210.5q-15 -5 -20 -6.5t-11 -1.5q-10 0 -18 11.5t-21 46.5t-13 69q0 10 1 20t4 30zM569 850q19 0 19 -20q0 -11 -13.5 -31.5t-37 -42.5t-55.5 -22q-16 0 -26 3t-39.5 18.5t-42.5 15.5q-18 0 -39 -16.5
t-28 -16.5q-9 0 -14.5 5.5t-5.5 13.5q0 11 9.5 27.5t39 50t61.5 33.5t62 -19.5t37 -22.5t18 -3t15 2t27 21q8 4 13 4z" />
    <glyph glyph-name="Odieresis" unicode="&#xd6;" horiz-adv-x="567" 
d="M521 538l9 9l15 17l2 -23q0 -46 -20 -77l1 -16q0 -31 -16 -130t-56.5 -169.5t-105.5 -117.5t-124 -47q-15 0 -35.5 8t-83.5 51.5t-63 216.5q0 126 54 244.5t143 187.5q32 -22 48.5 -39.5t39.5 -54.5q9 46 17 63.5t28 33.5q76 0 106 -32t41 -125zM328 590
q-66 -36 -109 -130.5t-43 -204.5q0 -138 67 -171q65 39 107 126.5t56 210.5q-15 -5 -20 -6.5t-11 -1.5q-10 0 -18 11.5t-21 46.5t-13 69q0 10 1 20t4 30zM324 834q47 0 47 -44q0 -54 -49 -54t-49 41q0 57 51 57zM486 834q47 0 47 -41q0 -57 -51 -57q-47 0 -47 37q0 61 51 61
z" />
    <glyph glyph-name="multiply" unicode="&#xd7;" 
d="M101 550l151 -152l153 153l46 -46l-153 -152l152 -152l-44 -45l-152 153l-153 -154l-46 46l154 153l-152 151z" />
    <glyph glyph-name="Oslash" unicode="&#xd8;" horiz-adv-x="556" 
d="M504 700l12 -62l-28 -42l11 -64l15 15l8 7l1 -23q0 -40 -3 -54t-16 -28l1 -36q0 -162 -87 -298t-190 -136q-44 0 -96 46l-29 -48l-61 2l58 88q-62 79 -62 217q0 67 19 137.5t49 126.5t56.5 86.5t64.5 57.5q29 -17 44.5 -33.5t34.5 -50.5q4 28 8.5 41t17 33t19.5 20l11 -1
l36 -7q29 -4 42 -13t27 -33zM170 176l167 262q-15 17 -19.5 24t-6.5 15t-5 39.5t-3 49.5l2 33q-37 -26 -61.5 -62.5t-52.5 -118.5t-28 -179q0 -20 1 -29.5t6 -33.5zM377 416l-185 -297q20 -35 41 -35q10 0 29.5 16.5t45.5 51.5t52 111.5t32 148.5q-7 0 -15 4z" />
    <glyph glyph-name="Ugrave" unicode="&#xd9;" horiz-adv-x="557" 
d="M215 335l-9 -42q-11 -49 -17 -84t-9 -60q63 62 95.5 103.5t51 84.5t40.5 121.5t29.5 125t10 68t2.5 49.5q110 -42 110 -124q0 -18 -3 -42t-16 -101t-29 -150.5t-23.5 -100.5t-16.5 -59q30 5 49.5 10t41.5 12q-12 -38 -27.5 -75t-24 -48t-41.5 -22t-58 -11q-12 0 -25 12.5
t-25 33t-12 34.5l2 30q4 42 10.5 62.5t13.5 42.5l-53 -69q-28 -38 -50 -62.5t-54.5 -54t-43.5 -29.5q-14 0 -34 18t-32 40.5t-12 86.5q0 78 17 170t55 214l-16 -11q-10 -6 -18.5 -11.5t-20.5 -14.5l-15 -11q-7 25 -9 42t-2 44q0 20 3 27t22 25l63 54q27 22 37 29.5t18 6.5
q11 0 34.5 -14.5t28.5 -26t5 -49.5q0 -69 -16 -153l-17 -78zM420 853q10 0 17.5 -5t33.5 -32t36 -41.5t10 -27.5q0 -19 -22 -19q-21 0 -59 16.5t-64 37.5t-26 38q0 22 25 27z" />
    <glyph glyph-name="Uacute" unicode="&#xda;" horiz-adv-x="557" 
d="M215 335l-9 -42q-11 -49 -17 -84t-9 -60q63 62 95.5 103.5t51 84.5t40.5 121.5t29.5 125t10 68t2.5 49.5q110 -42 110 -124q0 -18 -3 -42t-16 -101t-29 -150.5t-23.5 -100.5t-16.5 -59q30 5 49.5 10t41.5 12q-12 -38 -27.5 -75t-24 -48t-41.5 -22t-58 -11q-12 0 -25 12.5
t-25 33t-12 34.5l2 30q4 42 10.5 62.5t13.5 42.5l-53 -69q-28 -38 -50 -62.5t-54.5 -54t-43.5 -29.5q-14 0 -34 18t-32 40.5t-12 86.5q0 78 17 170t55 214l-16 -11q-10 -6 -18.5 -11.5t-20.5 -14.5l-15 -11q-7 25 -9 42t-2 44q0 20 3 27t22 25l63 54q27 22 37 29.5t18 6.5
q11 0 34.5 -14.5t28.5 -26t5 -49.5q0 -69 -16 -153l-17 -78zM442 853l49 -6q25 -5 25 -27q0 -24 -34 -46t-65.5 -34t-49.5 -12q-22 0 -22 19q0 12 4 19.5t29 35.5t38.5 39.5t25.5 11.5z" />
    <glyph glyph-name="Ucircumflex" unicode="&#xdb;" horiz-adv-x="557" 
d="M215 335l-9 -42q-11 -49 -17 -84t-9 -60q63 62 95.5 103.5t51 84.5t40.5 121.5t29.5 125t10 68t2.5 49.5q110 -42 110 -124q0 -18 -3 -42t-16 -101t-29 -150.5t-23.5 -100.5t-16.5 -59q30 5 49.5 10t41.5 12q-12 -38 -27.5 -75t-24 -48t-41.5 -22t-58 -11q-12 0 -25 12.5
t-25 33t-12 34.5l2 30q4 42 10.5 62.5t13.5 42.5l-53 -69q-28 -38 -50 -62.5t-54.5 -54t-43.5 -29.5q-14 0 -34 18t-32 40.5t-12 86.5q0 78 17 170t55 214l-16 -11q-10 -6 -18.5 -11.5t-20.5 -14.5l-15 -11q-7 25 -9 42t-2 44q0 20 3 27t22 25l63 54q27 22 37 29.5t18 6.5
q11 0 34.5 -14.5t28.5 -26t5 -49.5q0 -69 -16 -153l-17 -78zM415 781l-26 -22q-20 -18 -30.5 -23.5t-23.5 -5.5q-11 0 -19 8t-8 19q0 10 9.5 22t45.5 46.5t66 34.5q20 0 30.5 -5t50 -32t39.5 -53q0 -17 -11 -29t-26 -12q-14 0 -42 16z" />
    <glyph glyph-name="Udieresis" unicode="&#xdc;" horiz-adv-x="557" 
d="M215 335l-9 -42q-11 -49 -17 -84t-9 -60q63 62 95.5 103.5t51 84.5t40.5 121.5t29.5 125t10 68t2.5 49.5q110 -42 110 -124q0 -18 -3 -42t-16 -101t-29 -150.5t-23.5 -100.5t-16.5 -59q30 5 49.5 10t41.5 12q-12 -38 -27.5 -75t-24 -48t-41.5 -22t-58 -11q-12 0 -25 12.5
t-25 33t-12 34.5l2 30q4 42 10.5 62.5t13.5 42.5l-53 -69q-28 -38 -50 -62.5t-54.5 -54t-43.5 -29.5q-14 0 -34 18t-32 40.5t-12 86.5q0 78 17 170t55 214l-16 -11q-10 -6 -18.5 -11.5t-20.5 -14.5l-15 -11q-7 25 -9 42t-2 44q0 20 3 27t22 25l63 54q27 22 37 29.5t18 6.5
q11 0 34.5 -14.5t28.5 -26t5 -49.5q0 -69 -16 -153l-17 -78zM277 834q47 0 47 -44q0 -54 -49 -54t-49 41q0 57 51 57zM439 834q47 0 47 -41q0 -57 -51 -57q-47 0 -47 37q0 61 51 61z" />
    <glyph glyph-name="Yacute" unicode="&#xdd;" horiz-adv-x="539" 
d="M256 509l-7 -48q-9 -56 -17 -112q-4 -19 -9.5 -50t-13.5 -64t-25 -99q28 19 47 39t61.5 79.5t69 143t59.5 291.5q52 -26 74.5 -53.5t22.5 -65.5q0 -29 -18.5 -167t-21 -150t-16 -85t-34 -162t-27 -104.5t-28.5 -37t-58 -40.5t-59 -19q-48 0 -101 78q31 52 39 63t39 37
q8 -49 62 -89l-2 46q0 95 43 256q-37 -57 -52 -78.5t-25 -32.5l-23 -25l-22 -24l-23 -24q-18 -21 -26 -21q-5 -1 -24.5 11.5t-43.5 31t-24 43.5l1 60q0 54 5 93q7 41 18.5 117t48.5 198q-28 -10 -45.5 -29.5t-31.5 -55.5q-12 19 -18.5 31t-14 32.5t-7.5 38.5q0 11 15.5 32.5
t55 61.5t71.5 40q28 0 61.5 -32t33.5 -56q0 -29 -10 -99zM433 853l49 -6q25 -5 25 -27t-34 -45t-65.5 -35t-49.5 -12q-22 0 -22 19q0 16 6 25q13 13 34.5 38t32.5 34t24 9z" />
    <glyph glyph-name="Thorn" unicode="&#xde;" horiz-adv-x="600" 
d="M142 667h131l-19 -80h150q89 0 141 -42t52 -116q0 -114 -80 -190t-202 -76h-159l-37 -163h-131zM229 479l-49 -214h127q72 0 114.5 38.5t42.5 103.5q0 72 -105 72h-130z" />
    <glyph glyph-name="germandbls" unicode="&#xdf;" horiz-adv-x="418" 
d="M219 337l-107 -529q-82 45 -82 84q0 33 29.5 270.5t72 346t72.5 139t75 30.5q50 0 82 -37t32 -96q0 -48 -18 -89t-65 -97q56 -66 56 -161q0 -140 -130 -221q-28 21 -39 36t-24 50q54 30 75.5 62.5t21.5 82.5q0 78 -51 129zM260 582l-37 -219q75 50 75 144q0 60 -38 75z
" />
    <glyph glyph-name="agrave" unicode="&#xe0;" horiz-adv-x="481" 
d="M432 109q-28 -50 -46.5 -75.5t-24.5 -32.5t-28 -7q-75 0 -75 56l4 32q-81 -91 -145 -91q-37 0 -59 28.5t-22 76.5q0 95 62.5 193.5t150.5 141.5q29 -10 45.5 -21.5t42.5 -39.5l9 38l5 28q48 -18 66.5 -31.5t18.5 -32.5q0 -42 -19.5 -122t-43.5 -141l31 -1zM176 92
q46 23 74 64.5t41.5 75t43.5 136.5q-63 -26 -115 -98t-52 -135q0 -16 8 -43zM337 637q13 0 22.5 -7.5t35.5 -42t26 -55.5q0 -9 -5.5 -14.5t-13.5 -5.5q-6 0 -15 4t-57.5 25t-48.5 67q0 29 56 29z" />
    <glyph glyph-name="aacute" unicode="&#xe1;" horiz-adv-x="481" 
d="M432 109q-28 -50 -46.5 -75.5t-24.5 -32.5t-28 -7q-75 0 -75 56l4 32q-81 -91 -145 -91q-37 0 -59 28.5t-22 76.5q0 95 62.5 193.5t150.5 141.5q29 -10 45.5 -21.5t42.5 -39.5l9 38l5 28q48 -18 66.5 -31.5t18.5 -32.5q0 -42 -19.5 -122t-43.5 -141l31 -1zM176 92
q46 23 74 64.5t41.5 75t43.5 136.5q-63 -26 -115 -98t-52 -135q0 -16 8 -43zM366 637q55 0 55 -29q0 -33 -26.5 -50.5t-35.5 -21.5l-31.5 -14t-27.5 -10q-19 0 -19 20q0 19 26 54.5t35.5 43t23.5 7.5z" />
    <glyph glyph-name="acircumflex" unicode="&#xe2;" horiz-adv-x="481" 
d="M432 109q-28 -50 -46.5 -75.5t-24.5 -32.5t-28 -7q-75 0 -75 56l4 32q-81 -91 -145 -91q-37 0 -59 28.5t-22 76.5q0 95 62.5 193.5t150.5 141.5q29 -10 45.5 -21.5t42.5 -39.5l9 38l5 28q48 -18 66.5 -31.5t18.5 -32.5q0 -42 -19.5 -122t-43.5 -141l31 -1zM176 92
q46 23 74 64.5t41.5 75t43.5 136.5q-63 -26 -115 -98t-52 -135q0 -16 8 -43zM331 554q-54 -50 -78 -50q-12 0 -20 7t-8 18q0 21 34.5 52.5t51.5 41.5t37 10t33.5 -6.5t37 -25.5t35 -31.5t11.5 -24.5q0 -17 -12 -30t-27 -13q-12 0 -28 9t-67 43z" />
    <glyph glyph-name="atilde" unicode="&#xe3;" horiz-adv-x="481" 
d="M432 109q-28 -50 -46.5 -75.5t-24.5 -32.5t-28 -7q-75 0 -75 56l4 32q-81 -91 -145 -91q-37 0 -59 28.5t-22 76.5q0 95 62.5 193.5t150.5 141.5q29 -10 45.5 -21.5t42.5 -39.5l9 38l5 28q48 -18 66.5 -31.5t18.5 -32.5q0 -42 -19.5 -122t-43.5 -141l31 -1zM176 92
q46 23 74 64.5t41.5 75t43.5 136.5q-63 -26 -115 -98t-52 -135q0 -16 8 -43zM484 613q15 0 15 -19q0 -20 -33.5 -56t-70.5 -36q-13 0 -28.5 5t-42 18t-40.5 13q-12 0 -22.5 -7.5t-21.5 -16t-22 -8.5q-18 0 -18 16q0 18 22 46t47 44.5t44 16.5q26 0 62 -21.5t49 -21.5
q10 0 17 3t21 12.5t22 11.5z" />
    <glyph glyph-name="adieresis" unicode="&#xe4;" horiz-adv-x="481" 
d="M432 109q-28 -50 -46.5 -75.5t-24.5 -32.5t-28 -7q-75 0 -75 56l4 32q-81 -91 -145 -91q-37 0 -59 28.5t-22 76.5q0 95 62.5 193.5t150.5 141.5q29 -10 45.5 -21.5t42.5 -39.5l9 38l5 28q48 -18 66.5 -31.5t18.5 -32.5q0 -42 -19.5 -122t-43.5 -141l31 -1zM176 92
q46 23 74 64.5t41.5 75t43.5 136.5q-63 -26 -115 -98t-52 -135q0 -16 8 -43zM266 598q52 0 52 -48q0 -68 -51 -68t-51 50q0 66 50 66zM409 603q23 0 38.5 -13.5t15.5 -35.5q0 -28 -15 -47t-38 -19t-38 12t-15 32q0 32 14.5 51.5t37.5 19.5z" />
    <glyph glyph-name="aring" unicode="&#xe5;" horiz-adv-x="481" 
d="M432 109q-28 -50 -46.5 -75.5t-24.5 -32.5t-28 -7q-75 0 -75 56l4 32q-81 -91 -145 -91q-37 0 -59 28.5t-22 76.5q0 95 62.5 193.5t150.5 141.5q29 -10 45.5 -21.5t42.5 -39.5l9 38l5 28q48 -18 66.5 -31.5t18.5 -32.5q0 -42 -19.5 -122t-43.5 -141l31 -1zM176 92
q46 23 74 64.5t41.5 75t43.5 136.5q-63 -26 -115 -98t-52 -135q0 -16 8 -43zM339 644q31 0 53 -24t22 -58q0 -32 -23 -56t-55 -24t-55 24t-23 56q0 34 23 58t58 24zM338 588q-28 0 -28 -24q0 -11 8 -19t19 -8t18.5 7.5t7.5 18.5t-7 18t-18 7z" />
    <glyph glyph-name="ae" unicode="&#xe6;" horiz-adv-x="613" 
d="M559 139q-10 -31 -17.5 -51.5t-14.5 -38.5t-11 -22.5t-38 -20.5t-91 -16q-53 0 -84 20t-44 63q-78 -85 -138 -85q-40 0 -65 29t-25 77q0 96 59 192t155 153q29 -15 46 -29.5t38 -39.5l7 32l6 39q32 -15 62 -38q36 33 76 33t71 -33t31 -78t-26 -87t-59 -58t-57 -21.5
t-62 -5.5l-3 -38q0 -12 4 -29q55 0 90.5 11t89.5 42zM382 173q26 3 42 15.5t31.5 39.5t24.5 55.5t9 47.5l-3 17q-44 -31 -68.5 -71.5t-35.5 -103.5zM328 363q-76 -26 -124.5 -97.5t-48.5 -156.5l2 -25q64 34 97 87.5t74 191.5z" />
    <glyph glyph-name="ccedilla" unicode="&#xe7;" horiz-adv-x="362" 
d="M105 -26l24 8q-42 8 -67 42t-25 85q0 112 54 183.5t87.5 98t53.5 26.5q13 0 34.5 -6t42.5 -18.5t21 -60.5q0 -13 -4 -35t-7.5 -32.5t-10 -14.5t-23.5 -10t-28.5 -9t-39.5 -3l4 10q16 35 16 78l-1 17q-37 -31 -61 -83t-24 -100q0 -32 9 -68q37 0 65.5 7t73.5 24
q-23 -87 -35 -101t-74 -27q19 -7 19 -30q0 -27 -14 -56.5t-37 -46.5t-61 -17h-12q28 30 34 64h-12l-16 -1l-12 -1q19 42 26 77z" />
    <glyph glyph-name="egrave" unicode="&#xe8;" horiz-adv-x="383" 
d="M329 152q-17 -86 -39.5 -110.5t-59.5 -37.5t-72 -13q-54 0 -87 36t-33 96q0 109 71.5 214t133.5 105q42 0 73.5 -31.5t31.5 -74.5q0 -73 -56 -125.5t-139 -52.5l-2 -31l2 -24q16 -4 24 -5t19 -1q38 0 66.5 12t66.5 43zM258 359q-43 -26 -68 -70.5t-34 -113.5
q30 9 48.5 28.5t31 51t17.5 54.5t5 50zM289 637q13 0 22.5 -7.5t35.5 -42t26 -55.5q0 -9 -5.5 -14.5t-13.5 -5.5q-6 0 -15 4t-57.5 25t-48.5 67q0 29 56 29z" />
    <glyph glyph-name="eacute" unicode="&#xe9;" horiz-adv-x="383" 
d="M329 152q-17 -86 -39.5 -110.5t-59.5 -37.5t-72 -13q-54 0 -87 36t-33 96q0 109 71.5 214t133.5 105q42 0 73.5 -31.5t31.5 -74.5q0 -73 -56 -125.5t-139 -52.5l-2 -31l2 -24q16 -4 24 -5t19 -1q38 0 66.5 12t66.5 43zM258 359q-43 -26 -68 -70.5t-34 -113.5
q30 9 48.5 28.5t31 51t17.5 54.5t5 50zM317 637q55 0 55 -29q0 -33 -26.5 -50.5t-35.5 -21.5l-31.5 -14t-27.5 -10q-19 0 -19 20q0 19 26 54.5t35.5 43t23.5 7.5z" />
    <glyph glyph-name="ecircumflex" unicode="&#xea;" horiz-adv-x="383" 
d="M329 152q-17 -86 -39.5 -110.5t-59.5 -37.5t-72 -13q-54 0 -87 36t-33 96q0 109 71.5 214t133.5 105q42 0 73.5 -31.5t31.5 -74.5q0 -73 -56 -125.5t-139 -52.5l-2 -31l2 -24q16 -4 24 -5t19 -1q38 0 66.5 12t66.5 43zM258 359q-43 -26 -68 -70.5t-34 -113.5
q30 9 48.5 28.5t31 51t17.5 54.5t5 50zM282 554q-54 -50 -78 -50q-12 0 -20 7t-8 18q0 21 34.5 52.5t51.5 41.5t37 10t33.5 -6.5t37 -25.5t35 -31.5t11.5 -24.5q0 -17 -12 -30t-27 -13q-12 0 -28 9t-67 43z" />
    <glyph glyph-name="edieresis" unicode="&#xeb;" horiz-adv-x="383" 
d="M329 152q-17 -86 -39.5 -110.5t-59.5 -37.5t-72 -13q-54 0 -87 36t-33 96q0 109 71.5 214t133.5 105q42 0 73.5 -31.5t31.5 -74.5q0 -73 -56 -125.5t-139 -52.5l-2 -31l2 -24q16 -4 24 -5t19 -1q38 0 66.5 12t66.5 43zM258 359q-43 -26 -68 -70.5t-34 -113.5
q30 9 48.5 28.5t31 51t17.5 54.5t5 50zM228 614q52 0 52 -48q0 -68 -51 -68t-51 50q0 66 50 66zM371 619q23 0 38.5 -13.5t15.5 -35.5q0 -28 -15 -47t-38 -19t-38 12t-15 32q0 32 14.5 51.5t37.5 19.5z" />
    <glyph glyph-name="igrave" unicode="&#xec;" horiz-adv-x="290" 
d="M221 122q-19 -82 -37.5 -106.5t-61.5 -24.5q-33 0 -52 22t-19 62q0 61 31.5 174.5t67.5 184.5q28 -14 48 -29t23 -20t3 -14t-1 -17t-14 -77t-16.5 -83t-23.5 -83q19 2 28 4t24 7zM242 637q13 0 22.5 -7.5t35.5 -42t26 -55.5q0 -9 -5.5 -14.5t-13.5 -5.5q-6 0 -15 4
t-57.5 25t-48.5 67q0 29 56 29z" />
    <glyph glyph-name="iacute" unicode="&#xed;" horiz-adv-x="289" 
d="M221 122q-19 -82 -37.5 -106.5t-61.5 -24.5q-33 0 -52 22t-19 62q0 61 31.5 174.5t67.5 184.5q28 -14 48 -29t23 -20t3 -14t-1 -17t-14 -77t-16.5 -83t-23.5 -83q19 2 28 4t24 7zM270 637q55 0 55 -29q0 -33 -26.5 -50.5t-35.5 -21.5l-31.5 -14t-27.5 -10q-19 0 -19 20
q0 19 26 54.5t35.5 43t23.5 7.5z" />
    <glyph glyph-name="icircumflex" unicode="&#xee;" horiz-adv-x="290" 
d="M221 122q-19 -82 -37.5 -106.5t-61.5 -24.5q-33 0 -52 22t-19 62q0 61 31.5 174.5t67.5 184.5q28 -14 48 -29t23 -20t3 -14t-1 -17t-14 -77t-16.5 -83t-23.5 -83q19 2 28 4t24 7zM235 554q-54 -50 -78 -50q-12 0 -20 7t-8 18q0 21 34.5 52.5t51.5 41.5t37 10t33.5 -6.5
t37 -25.5t35 -31.5t11.5 -24.5q0 -17 -12 -30t-27 -13q-12 0 -28 9t-67 43z" />
    <glyph glyph-name="idieresis" unicode="&#xef;" horiz-adv-x="290" 
d="M221 122q-19 -82 -37.5 -106.5t-61.5 -24.5q-33 0 -52 22t-19 62q0 61 31.5 174.5t67.5 184.5q28 -14 48 -29t23 -20t3 -14t-1 -17t-14 -77t-16.5 -83t-23.5 -83q19 2 28 4t24 7zM188 614q47 0 47 -48q0 -68 -46 -68t-46 50q0 30 12 48t33 18zM317 619q20 0 34 -14
t14 -34q0 -29 -13 -48t-34 -19q-22 0 -35 12t-13 32q0 31 13 51t34 20z" />
    <glyph glyph-name="eth" unicode="&#xf0;" horiz-adv-x="548" 
d="M150 635l28 43q9 -2 23 -6t44.5 -13.5t41.5 -13.5t22 -10l125 74l17 -40l-96 -56q53 -35 106 -88t53 -181q0 -149 -93 -254t-227 -105q-87 0 -138.5 49.5t-51.5 132.5q0 68 28 131.5t72 103t96 57.5l29 10l23 6l77.5 -10t29.5 -10q-22 52 -34.5 70t-44.5 46l-119 -72
l-17 40l98 57q-40 25 -92 39zM303 412q-71 0 -124 -70t-53 -165q0 -108 90 -108q89 0 131.5 85.5t42.5 166.5q0 43 -23 67t-64 24z" />
    <glyph glyph-name="ntilde" unicode="&#xf1;" horiz-adv-x="471" 
d="M428 120q-19 -45 -47.5 -89t-38.5 -45l-38 12q-34 13 -48 28t-14 40q0 28 13 85.5t21 79.5t26 58q-78 -50 -115 -125t-48 -107.5t-21 -75.5q-35 17 -60.5 38t-25.5 36q0 18 3.5 33t15.5 84.5t28 127.5t47 134q87 -31 87 -56q0 -21 -12 -90q46 65 92.5 106t68.5 41
q16 0 51 -22q18 -13 18 -34q0 -38 -21 -124.5t-45 -146.5q15 0 30 4t33 8zM479 613q15 0 15 -19q0 -20 -33.5 -56t-70.5 -36q-13 0 -28.5 5t-42 18t-40.5 13q-12 0 -22.5 -7.5t-21.5 -16t-22 -8.5q-18 0 -18 16q0 18 22 46t47 44.5t44 16.5q26 0 62 -21.5t49 -21.5
q10 0 17 3t21 12.5t22 11.5z" />
    <glyph glyph-name="ograve" unicode="&#xf2;" horiz-adv-x="430" 
d="M406 293q0 -49 -20 -84q-6 -14 -30 -22q-21 -55 -50 -97.5t-71 -71t-77 -28.5q-48 0 -82 44t-34 105q0 80 33 154t98 140q29 -13 43 -25t29 -41q7 23 11 32.5t17 33t17 28.5t10 5q22 0 61.5 -21.5t39.5 -41.5q0 -17 -5.5 -50t-16.5 -78q10 3 19 11zM275 233
q-36 45 -36 83l3 40q-38 -38 -61.5 -96t-23.5 -117q0 -21 9 -48q68 45 109 138zM312 637q13 0 22.5 -7.5t35.5 -42t26 -55.5q0 -9 -5.5 -14.5t-13.5 -5.5q-6 0 -15 4t-57.5 25t-48.5 67q0 29 56 29z" />
    <glyph glyph-name="oacute" unicode="&#xf3;" horiz-adv-x="430" 
d="M406 293q0 -49 -20 -84q-6 -14 -30 -22q-21 -55 -50 -97.5t-71 -71t-77 -28.5q-48 0 -82 44t-34 105q0 80 33 154t98 140q29 -13 43 -25t29 -41q7 23 11 32.5t17 33t17 28.5t10 5q22 0 61.5 -21.5t39.5 -41.5q0 -17 -5.5 -50t-16.5 -78q10 3 19 11zM275 233
q-36 45 -36 83l3 40q-38 -38 -61.5 -96t-23.5 -117q0 -21 9 -48q68 45 109 138zM340 637q55 0 55 -29q0 -33 -26.5 -50.5t-35.5 -21.5l-31.5 -14t-27.5 -10q-19 0 -19 20q0 19 26 54.5t35.5 43t23.5 7.5z" />
    <glyph glyph-name="ocircumflex" unicode="&#xf4;" horiz-adv-x="430" 
d="M406 293q0 -49 -20 -84q-6 -14 -30 -22q-21 -55 -50 -97.5t-71 -71t-77 -28.5q-48 0 -82 44t-34 105q0 80 33 154t98 140q29 -13 43 -25t29 -41q7 23 11 32.5t17 33t17 28.5t10 5q22 0 61.5 -21.5t39.5 -41.5q0 -17 -5.5 -50t-16.5 -78q10 3 19 11zM275 233
q-36 45 -36 83l3 40q-38 -38 -61.5 -96t-23.5 -117q0 -21 9 -48q68 45 109 138zM305 554q-54 -50 -78 -50q-12 0 -20 7t-8 18q0 21 34.5 52.5t51.5 41.5t37 10t33.5 -6.5t37 -25.5t35 -31.5t11.5 -24.5q0 -17 -12 -30t-27 -13q-12 0 -28 9t-67 43z" />
    <glyph glyph-name="otilde" unicode="&#xf5;" horiz-adv-x="430" 
d="M406 293q0 -49 -20 -84q-6 -14 -30 -22q-21 -55 -50 -97.5t-71 -71t-77 -28.5q-48 0 -82 44t-34 105q0 80 33 154t98 140q29 -13 43 -25t29 -41q7 23 11 32.5t17 33t17 28.5t10 5q22 0 61.5 -21.5t39.5 -41.5q0 -17 -5.5 -50t-16.5 -78q10 3 19 11zM275 233
q-36 45 -36 83l3 40q-38 -38 -61.5 -96t-23.5 -117q0 -21 9 -48q68 45 109 138zM458 613q15 0 15 -19q0 -20 -33.5 -56t-70.5 -36q-13 0 -28.5 5t-42 18t-40.5 13q-12 0 -22.5 -7.5t-21.5 -16t-22 -8.5q-18 0 -18 16q0 18 22 46t47 44.5t44 16.5q26 0 62 -21.5t49 -21.5
q10 0 17 3t21 12.5t22 11.5z" />
    <glyph glyph-name="odieresis" unicode="&#xf6;" horiz-adv-x="430" 
d="M406 293q0 -49 -20 -84q-6 -14 -30 -22q-21 -55 -50 -97.5t-71 -71t-77 -28.5q-48 0 -82 44t-34 105q0 80 33 154t98 140q29 -13 43 -25t29 -41q7 23 11 32.5t17 33t17 28.5t10 5q22 0 61.5 -21.5t39.5 -41.5q0 -17 -5.5 -50t-16.5 -78q10 3 19 11zM275 233
q-36 45 -36 83l3 40q-38 -38 -61.5 -96t-23.5 -117q0 -21 9 -48q68 45 109 138zM231 598q52 0 52 -48q0 -68 -51 -68t-51 50q0 66 50 66zM374 603q23 0 38.5 -13.5t15.5 -35.5q0 -28 -15 -47t-38 -19t-38 12t-15 32q0 32 14.5 51.5t37.5 19.5z" />
    <glyph glyph-name="divide" unicode="&#xf7;" 
d="M17 385h473v-63h-473v63zM254 580q21 0 36 -15t15 -36t-15 -36t-36 -15t-36 15t-15 36t15 36t36 15zM253 228q21 0 36 -15t15 -36t-15 -36t-36 -15t-36 15t-15 36t15 36t36 15z" />
    <glyph glyph-name="oslash" unicode="&#xf8;" horiz-adv-x="436" 
d="M415 436l2 -49l-25 -27l-3 -45l-4 -21l28 22q0 -45 -15.5 -76.5t-39.5 -40.5q-23 -89 -80 -149t-117 -60q-42 0 -75 31l-29 -33l-41 1l53 60q-14 26 -20 48.5t-6 51.5q0 71 42.5 158t95.5 126q39 -20 68 -58q24 88 57 88q5 0 11.5 -2t29.5 -11.5t28 -14t13 -29.5z
M279 236l-118 -133q2 -11 10 -11q26 0 61 46t47 98zM154 144l99 111l-6 13q-10 21 -10 32q0 21 7 59q-31 -32 -48 -67t-30 -75t-13 -60z" />
    <glyph glyph-name="ugrave" unicode="&#xf9;" horiz-adv-x="462" 
d="M359 98h8l10 1l24 4l19 4q-27 -63 -50.5 -92.5t-65.5 -29.5q-37 0 -52.5 13.5t-15.5 46.5v20q4 14 7 27l2 15q-34 -47 -62 -72.5t-46.5 -39t-25.5 -13.5q-4 0 -21.5 9t-29 16t-15.5 13.5t-4 25.5q0 75 25 193t56 187q38 -11 64 -29.5t26 -36.5q0 -11 -18.5 -95
t-36.5 -145q52 35 87.5 96t91.5 214q33 -15 54.5 -33.5t21.5 -31.5q0 -25 -14.5 -108t-38.5 -159zM328 637q13 0 22.5 -7.5t35.5 -42t26 -55.5q0 -9 -5.5 -14.5t-13.5 -5.5q-6 0 -15 4t-57.5 25t-48.5 67q0 29 56 29z" />
    <glyph glyph-name="uacute" unicode="&#xfa;" horiz-adv-x="462" 
d="M359 98h8l10 1l24 4l19 4q-27 -63 -50.5 -92.5t-65.5 -29.5q-37 0 -52.5 13.5t-15.5 46.5v20q4 14 7 27l2 15q-34 -47 -62 -72.5t-46.5 -39t-25.5 -13.5q-4 0 -21.5 9t-29 16t-15.5 13.5t-4 25.5q0 75 25 193t56 187q38 -11 64 -29.5t26 -36.5q0 -11 -18.5 -95
t-36.5 -145q52 35 87.5 96t91.5 214q33 -15 54.5 -33.5t21.5 -31.5q0 -25 -14.5 -108t-38.5 -159zM356 637q55 0 55 -29q0 -33 -26.5 -50.5t-35.5 -21.5l-31.5 -14t-27.5 -10q-19 0 -19 20q0 19 26 54.5t35.5 43t23.5 7.5z" />
    <glyph glyph-name="ucircumflex" unicode="&#xfb;" horiz-adv-x="462" 
d="M359 98h8l10 1l24 4l19 4q-27 -63 -50.5 -92.5t-65.5 -29.5q-37 0 -52.5 13.5t-15.5 46.5v20q4 14 7 27l2 15q-34 -47 -62 -72.5t-46.5 -39t-25.5 -13.5q-4 0 -21.5 9t-29 16t-15.5 13.5t-4 25.5q0 75 25 193t56 187q38 -11 64 -29.5t26 -36.5q0 -11 -18.5 -95
t-36.5 -145q52 35 87.5 96t91.5 214q33 -15 54.5 -33.5t21.5 -31.5q0 -25 -14.5 -108t-38.5 -159zM321 554q-54 -50 -78 -50q-12 0 -20 7t-8 18q0 21 34.5 52.5t51.5 41.5t37 10t33.5 -6.5t37 -25.5t35 -31.5t11.5 -24.5q0 -17 -12 -30t-27 -13q-12 0 -28 9t-67 43z" />
    <glyph glyph-name="udieresis" unicode="&#xfc;" horiz-adv-x="462" 
d="M359 98h8l10 1l24 4l19 4q-27 -63 -50.5 -92.5t-65.5 -29.5q-37 0 -52.5 13.5t-15.5 46.5v20q4 14 7 27l2 15q-34 -47 -62 -72.5t-46.5 -39t-25.5 -13.5q-4 0 -21.5 9t-29 16t-15.5 13.5t-4 25.5q0 75 25 193t56 187q38 -11 64 -29.5t26 -36.5q0 -11 -18.5 -95
t-36.5 -145q52 35 87.5 96t91.5 214q33 -15 54.5 -33.5t21.5 -31.5q0 -25 -14.5 -108t-38.5 -159zM223 598q52 0 52 -48q0 -68 -51 -68t-51 50q0 66 50 66zM366 603q23 0 38.5 -13.5t15.5 -35.5q0 -28 -15 -47t-38 -19t-38 12t-15 32q0 32 14.5 51.5t37.5 19.5z" />
    <glyph glyph-name="yacute" unicode="&#xfd;" horiz-adv-x="412" 
d="M301 446q40 -23 55 -40t16 -30t1 -36q0 -45 -17 -135t-38.5 -159.5t-44.5 -123.5t-37.5 -71t-36.5 -32t-32 -15t-29.5 11.5t-29.5 23.5t-19 31t-9 27q0 15 21.5 38t49.5 38q3 -24 25 -52l11 72q5 27 10.5 49t17.5 62l-20 -24q-23 -29 -30.5 -37.5t-24 -24.5t-24 -23
t-11.5 -7q-8 -1 -24.5 12.5t-30.5 31t-14 45.5q0 73 25 174.5t65 184.5q37 -23 50.5 -37t13.5 -28q0 -33 -11.5 -98.5t-18.5 -95.5t-21 -71q34 22 56.5 50t43 72t33.5 90.5t29 127.5zM331 637q55 0 55 -29q0 -33 -26 -50.5t-39 -23.5t-31.5 -14t-23.5 -8q-19 0 -19 20
q0 19 34 67q17 22 27 30t23 8z" />
    <glyph glyph-name="thorn" unicode="&#xfe;" horiz-adv-x="574" 
d="M253 667l-64 -277q84 103 186 103q74 0 117 -45t43 -124q0 -139 -81.5 -239.5t-193.5 -100.5q-54 0 -90.5 25t-47.5 71l-56 -241h-118l191 828h114zM317 396q-70 0 -120 -66t-50 -160q0 -41 27 -69t68 -28q70 0 120 65t50 157q0 45 -26 73t-69 28z" />
    <glyph glyph-name="ydieresis" unicode="&#xff;" horiz-adv-x="412" 
d="M301 446q40 -23 55 -40t16 -30t1 -36q0 -45 -17 -135t-38.5 -159.5t-44.5 -123.5t-37.5 -71t-36.5 -32t-32 -15t-29.5 11.5t-29.5 23.5t-19 31t-9 27q0 15 21.5 38t49.5 38q3 -24 25 -52l11 72q5 27 10.5 49t17.5 62l-20 -24q-23 -29 -30.5 -37.5t-24 -24.5t-24 -23
t-11.5 -7q-8 -1 -24.5 12.5t-30.5 31t-14 45.5q0 73 25 174.5t65 184.5q37 -23 50.5 -37t13.5 -28q0 -33 -11.5 -98.5t-18.5 -95.5t-21 -71q34 22 56.5 50t43 72t33.5 90.5t29 127.5zM242 614q52 0 52 -48q0 -68 -51 -68t-51 50q0 66 50 66zM385 619q23 0 38.5 -13.5
t15.5 -35.5q0 -28 -15 -47t-38 -19t-38 12t-15 32q0 32 14.5 51.5t37.5 19.5z" />
    <glyph glyph-name="dotlessi" unicode="&#x131;" horiz-adv-x="289" 
d="M221 122q-19 -82 -37.5 -106.5t-61.5 -24.5q-33 0 -52 22t-19 62q0 61 31.5 174.5t67.5 184.5q28 -14 48 -29t23 -20t3 -14t-1 -17t-14 -77t-16.5 -83t-23.5 -83q19 2 28 4t24 7z" />
    <glyph glyph-name="Lslash" unicode="&#x141;" horiz-adv-x="574" 
d="M532 133q-29 -52 -73 -99t-66 -47l-47 9q-84 18 -106.5 24.5t-68.5 23.5q-56 -56 -101 -56q-16 0 -31 10t-15 22l6 34q5 28 7.5 41t6 22t24 20t31.5 13.5t21 3t17 0.5q16 27 25.5 52.5t15.5 58.5q-26 -3 -52.5 -15t-53.5 -31l4 23q8 44 18.5 62t38.5 39t68 32
q18 92 27.5 122t63.5 112t150 82q64 0 81 -34.5t25 -58t8 -33.5q0 -11 -12.5 -24.5t-39 -32.5t-36 -25t-32.5 -19q7 30 7 73v13q0 30 -1 36q-5 11 -6 18q-46 -24 -71 -76t-34 -142q50 7 76.5 14.5t48.5 22.5q-4 -34 -14 -56.5t-28.5 -44.5t-33.5 -27t-64 -13
q-11 -83 -59 -142q117 -37 167 -37q22 0 40.5 5t67.5 25z" />
    <glyph glyph-name="lslash" unicode="&#x142;" horiz-adv-x="292" 
d="M187 687l17 -14q43 -34 53.5 -51t10.5 -50q0 -73 -45 -190q51 10 94 32l-9 -22l-16 -40q-9 -29 -17.5 -38.5t-33.5 -22t-59 -20.5q-13 -40 -16.5 -67t-3.5 -100l20 -1q31 0 70 10q-17 -53 -24.5 -71.5t-15 -28t-26.5 -16.5t-39 -7q-29 0 -54 15t-36 34t-13 32.5t-2 46.5
q0 72 12 132q-11 -2 -15 -4t-10 -4l-36 -15l-24 -11q3 24 11 55t15 43t23 22t55 25q35 210 114 326z" />
    <glyph glyph-name="OE" unicode="&#x152;" horiz-adv-x="729" 
d="M331 622q34 76 64 76q6 0 8.5 -1t30.5 -12t33.5 -14.5t10.5 -14.5l6 -11q43 56 108 56q57 0 88 -42t31 -119q0 -52 -120 -71q18 39 18 88q0 27 -8 60q-85 -59 -85 -150q0 -24 6 -40t24 -36q18 12 32 12t17.5 -14.5t3.5 -64.5q0 -42 -23 -42q-14 0 -38 17
q-72 -56 -83 -180l28 -1q67 0 106 9t87 37q-15 -44 -19 -54.5t-17.5 -40.5t-17 -35t-18 -13t-56.5 -18t-74 -10q-86 0 -139 75q-64 -77 -145 -77q-90 0 -116 74t-32 113t-6 79q0 132 62 251t172 198q23 -19 35.5 -36t25.5 -48zM392 416l-18 -2q-21 0 -39.5 35t-18.5 93
q0 29 11 70q-41 -40 -65.5 -74.5t-64 -118.5t-39.5 -182q0 -53 13 -86.5t46 -65.5q81 44 121.5 121t53.5 210z" />
    <glyph glyph-name="oe" unicode="&#x153;" horiz-adv-x="560" 
d="M348 87h21q69 0 152 50q-6 -23 -14.5 -45.5t-16 -42.5t-12 -25.5t-45 -21.5t-83.5 -16q-73 0 -101 50q-28 -29 -49 -39.5t-50 -10.5q-57 0 -94 42t-37 107q0 85 34 163t98 137q48 -17 71 -58q27 88 62 88q13 0 37 -11t37.5 -20t19.5 -26q35 24 66 24q41 0 69 -31t28 -75
q0 -45 -24 -84.5t-54.5 -55t-53 -20.5t-68.5 -10v-28.5t7 -40.5zM454 352q-80 -47 -111 -175q46 4 80 48.5t34 100.5zM250 225q-21 26 -29 44.5t-8 45.5q0 19 8 48q-41 -36 -66 -96t-25 -125q0 -13 1.5 -24.5t10.5 -33.5q19 12 33 26.5t32.5 41t26 39.5t16.5 34z" />
    <glyph glyph-name="Scaron" unicode="&#x160;" horiz-adv-x="435" 
d="M311 294l16 -30q40 -80 40 -122q0 -30 -16 -65.5t-36.5 -54t-55 -28.5t-74.5 -10q-97 0 -127 55q-10 16 -15 38t-9 64q42 -21 78 -30t78 -9l39 4l2 14q0 13 -3.5 27t-8.5 30l-30 67l-15 33l-15 32l-15 32q-27 56 -37 85t-10 50q0 38 21 82.5t60 82t94 37.5q27 0 54.5 -8
t53 -20t27.5 -18.5t2 -33.5q0 -50 -11 -102q-36 32 -72.5 45.5t-93.5 13.5q-8 -25 -8 -40q0 -30 22 -88l34 -72l15 -30zM392 808l26 22q18 17 29.5 23t24.5 6q11 0 19 -8t8 -19q0 -10 -9.5 -22t-45.5 -46.5t-66 -34.5q-20 0 -30.5 5t-50 32.5t-39.5 52.5q0 15 11 28t26 13
q13 0 42 -15z" />
    <glyph glyph-name="scaron" unicode="&#x161;" horiz-adv-x="314" 
d="M279 400q8 -43 8 -70q0 -23 -9 -53q-22 28 -41.5 41t-46.5 13l36 -79q15 -32 25 -71.5t10 -68.5q0 -123 -117 -123q-42 0 -57.5 4t-28.5 23.5t-20 46t-7 70.5q45 -40 99 -40q12 0 28 6q-33 59 -55 121.5t-22 102.5q0 45 29.5 78.5t68.5 33.5q20 0 46.5 -9t53.5 -26z
M288 580q54 51 77 51q12 0 20.5 -7.5t8.5 -17.5q0 -21 -34.5 -52.5t-51.5 -41.5t-37 -10t-33.5 6.5t-37 25.5t-35 31.5t-11.5 24.5q0 17 12 30t27 13q12 0 29.5 -10t65.5 -43z" />
    <glyph glyph-name="Ydieresis" unicode="&#x178;" horiz-adv-x="539" 
d="M256 509l-7 -48q-9 -56 -17 -112q-4 -19 -9.5 -50t-13.5 -64t-25 -99q28 19 47 39t61.5 79.5t69 143t59.5 291.5q52 -26 74.5 -53.5t22.5 -65.5q0 -29 -18.5 -167t-21 -150t-16 -85t-34 -162t-27 -104.5t-28.5 -37t-58 -40.5t-59 -19q-48 0 -101 78q31 52 39 63t39 37
q8 -49 62 -89l-2 46q0 95 43 256q-37 -57 -52 -78.5t-25 -32.5l-23 -25l-22 -24l-23 -24q-18 -21 -26 -21q-5 -1 -24.5 11.5t-43.5 31t-24 43.5l1 60q0 54 5 93q7 41 18.5 117t48.5 198q-28 -10 -45.5 -29.5t-31.5 -55.5q-12 19 -18.5 31t-14 32.5t-7.5 38.5q0 11 15.5 32.5
t55 61.5t71.5 40q28 0 61.5 -32t33.5 -56q0 -29 -10 -99zM344 834q47 0 47 -44q0 -54 -49 -54t-49 41q0 57 51 57zM506 834q47 0 47 -41q0 -57 -51 -57q-47 0 -47 37q0 61 51 61z" />
    <glyph glyph-name="Zcaron" unicode="&#x17d;" horiz-adv-x="568" 
d="M136 640q76 35 136.5 50t124.5 15q41 0 60.5 -7t41 -27.5t32.5 -35t11 -21.5l-9 -36q-20 -69 -32 -97.5t-55 -111.5q21 0 45.5 4t38.5 6q-10 -31 -19 -50.5t-23.5 -40t-23 -23.5t-35.5 -3l-47 3q-10 -16 -24 -36t-30 -40.5t-33.5 -43t-33.5 -41.5q62 -24 119 -61
q35 55 90 70q35 -36 35 -84q0 -42 -40 -75t-90 -33q-46 0 -96.5 24.5t-109.5 74.5q-32 -26 -70 -26q-37 0 -60 32.5t-23 84.5l2 34q37 11 62 11q14 0 28 -2t42 -9l29 38q25 32 43.5 56.5t32.5 49.5l-55 17q-16 4 -18 22q-9 49 -9 77l1 24q68 -36 140 -45l43 94
q10 20 18.5 45.5t13.5 46.5l-35 2q-49 0 -80.5 -9.5t-105.5 -46.5q-33 50 -33 105zM458 808l26 22q18 17 29.5 23t24.5 6q11 0 19 -8t8 -19q0 -10 -9.5 -22t-45.5 -46.5t-66 -34.5q-20 0 -30.5 5t-50 32.5t-39.5 52.5q0 15 11 28t26 13q13 0 42 -15z" />
    <glyph glyph-name="zcaron" unicode="&#x17f;" horiz-adv-x="417" 
d="M253 29l10 -10q16 11 24.5 23t19.5 32q45 -34 45 -79q0 -31 -24 -57.5t-52 -26.5q-30 0 -69.5 24.5t-83.5 70.5q-15 -10 -25 -14.5t-17 -4.5q-15 0 -25.5 14t-25 53.5t-14.5 49.5q0 7 18.5 14t39.5 7q10 0 18.5 -1t26.5 -5q24 26 30.5 34.5t18.5 28.5q-19 7 -25.5 15.5
t-6.5 27.5q0 35 14 65q19 -11 30 -16t42 -16l13 25q9 17 12.5 26t8.5 25q-19 4 -34 4q-51 0 -106 -33q-42 31 -42 77l1 12q73 50 173 50q136 0 136 -78q0 -26 -11 -54t-45 -87l16 -1l50 4q-13 -25 -19.5 -35t-20 -29t-19 -23t-26.5 -4q-15 0 -38 4q-8 -8 -30.5 -32.5
t-34.5 -38.5l12 -10q11 -9 14.5 -12t20.5 -19zM338 580q54 51 77 51q12 0 20.5 -7.5t8.5 -17.5q0 -21 -34.5 -52.5t-51.5 -41.5t-37 -10t-33.5 6.5t-37 25.5t-35 31.5t-11.5 24.5q0 17 12 30t27 13q12 0 29.5 -10t65.5 -43z" />
    <glyph glyph-name="florin" unicode="&#x192;" 
d="M336 354h-25q-4 -43 -9 -72t-23 -107t-26.5 -137t-26 -91.5t-59 -52t-103.5 -36.5q27 50 48 105t31 94.5t27.5 132t27.5 154.5h-16l-49 -4q-24 -3 -39 -4.5t-40 -7.5q34 75 59 94.5t98 19.5q12 67 17 83t28 77.5t31.5 72t46.5 31t80 20.5h31q23 0 30 -1t9 -4l4 -8
q3 -8 7 -15q4 -4 11 -17t13.5 -24t13.5 -30l-45 2q-44 0 -113 -16l-8 -19q-25 -59 -31.5 -79.5t-12.5 -66.5h24q12 0 40 2t41 4q12 0 38 11q-34 -76 -53 -93.5t-65 -17.5h-12z" />
    <glyph glyph-name="hungarumlaut" unicode="&#x2ba;" 
d="M302 637q55 0 55 -29q0 -33 -26.5 -50.5t-35.5 -21.5l-31.5 -14t-27.5 -10q-19 0 -19 20q0 19 26 54.5t35.5 43t23.5 7.5zM449 637q55 0 55 -29q0 -33 -26.5 -50.5t-35.5 -21.5l-31.5 -14t-27.5 -10q-19 0 -19 20q0 19 26 54.5t35.5 43t23.5 7.5z" />
    <glyph glyph-name="circumflex" unicode="&#x2c6;" 
d="M340 554q-54 -50 -78 -50q-12 0 -20 7t-8 18q0 21 34.5 52.5t51.5 41.5t37 10t33.5 -6.5t37 -25.5t35 -31.5t11.5 -24.5q0 -17 -12 -30t-27 -13q-12 0 -28 9t-67 43z" />
    <glyph glyph-name="caron" unicode="&#x2c7;" 
d="M381 580q54 51 77 51q12 0 20.5 -7.5t8.5 -17.5q0 -21 -34.5 -52.5t-51.5 -41.5t-37 -10t-33.5 6.5t-37 25.5t-35 31.5t-11.5 24.5q0 17 12 30t27 13q12 0 29.5 -10t65.5 -43z" />
    <glyph glyph-name="breve" unicode="&#x2d8;" 
d="M266 644q10 0 28 -17q25 -21 51 -34.5t43 -13.5q29 0 51 25.5t28.5 30.5t13.5 5q11 0 20.5 -11.5t9.5 -25.5q-2 -19 -28.5 -48t-49 -40t-54.5 -11q-50 0 -85.5 20.5t-52.5 40.5t-17 34q0 12 16.5 28.5t25.5 16.5z" />
    <glyph glyph-name="dotaccent" unicode="&#x2d9;" 
d="M357 614q52 0 52 -48q0 -68 -51 -68t-51 50q0 66 50 66z" />
    <glyph glyph-name="ring" unicode="&#x2da;" 
d="M366 661q31 0 53 -24t22 -58q0 -32 -23 -56t-55 -24t-55 24t-23 56q0 34 23 58t58 24zM365 605q-28 0 -28 -24q0 -11 8 -19t19 -8t18.5 7.5t7.5 18.5t-7 18t-18 7z" />
    <glyph glyph-name="ogonek" unicode="&#x2db;" 
d="M296 0l-40 -46q-6 -9 -10 -16q5 -6 7 -6l16 -8l62 27l2 -17q0 -19 -10.5 -42.5t-24.5 -33.5t-60 -10q-26 0 -50 22t-34.5 37.5t-10.5 23.5q0 7 3 11t15 14l52 44h83z" />
    <glyph glyph-name="tilde" unicode="&#x2dc;" 
d="M493 613q15 0 15 -19q0 -20 -33.5 -56t-70.5 -36q-13 0 -28.5 5t-42 18t-40.5 13q-12 0 -22.5 -7.5t-21.5 -16t-22 -8.5q-18 0 -18 16q0 18 22 46t47 44.5t44 16.5q26 0 62 -21.5t49 -21.5q10 0 17 3t21 12.5t22 11.5z" />
    <glyph glyph-name="summation" unicode="&#x3a3;" horiz-adv-x="667" 
d="M617 750v-247h-112l-13 133h-317l245 -369l-243 -403h324l7 137h118v-251h-589v132l236 385l-236 352v131h580z" />
    <glyph glyph-name="Omega" unicode="&#x3a9;" horiz-adv-x="666" 
d="M31 0v108h152q-155 95 -155 260q0 131 90 223t219 92q128 0 218 -92t90 -223q0 -86 -37 -148.5t-118 -111.5h152v-108h-267v100q144 76 144 245q0 97 -52 163t-130 66q-77 0 -130 -66t-53 -162q0 -169 144 -246v-100h-267z" />
    <glyph glyph-name="pi" unicode="&#x3c0;" horiz-adv-x="601" 
d="M96 0v387h-73v92h562v-92h-72v-387h-116v387h-185v-387h-116z" />
    <glyph glyph-name="endash" unicode="&#x2013;" horiz-adv-x="431" 
d="M266 306h27q35 0 52.5 3t51.5 15q-10 -59 -38 -85t-49 -31t-60 -5l-55 2l-80 2q-26 0 -40.5 -3.5t-41.5 -12.5q41 118 152 118h14l22 -1l23 -1z" />
    <glyph glyph-name="emdash" unicode="&#x2014;" horiz-adv-x="556" 
d="M346 306h37q46 0 69.5 3t70.5 15q-14 -59 -51.5 -85t-65.5 -31t-82 -5l-73 1l-108 3q-28 0 -47.5 -3t-62.5 -13q55 118 204 118h20l29 -1l30 -1z" />
    <glyph glyph-name="quoteleft" unicode="&#x2018;" horiz-adv-x="211" 
d="M140 700h15q-19 -23 -26 -38t-10 -41l23 3l15 2q-6 -24 -10 -42t-4 -33t-23.5 -23t-45.5 -8q-34 0 -34 37q0 62 28.5 102.5t71.5 40.5z" />
    <glyph glyph-name="quoteright" unicode="&#x2019;" horiz-adv-x="211" 
d="M180 520h-15q18 22 26 39.5t10 39.5l-23 -3l-15 -2q7 26 10.5 42.5t3.5 32.5q0 15 23.5 23t45.5 8q34 0 34 -37q0 -62 -28 -102.5t-72 -40.5z" />
    <glyph glyph-name="quotesinglbase" unicode="&#x201a;" horiz-adv-x="237" 
d="M60 -2q7 26 9.5 40.5t4.5 34.5q0 15 23.5 23t45.5 8q34 0 34 -37q0 -62 -28 -102.5t-72 -40.5l-15 1q18 21 26 38t10 41l-23 -4l-9 -1z" />
    <glyph glyph-name="quotedblleft" unicode="&#x201c;" horiz-adv-x="364" 
d="M140 700h15q-19 -23 -26 -38t-10 -41l23 3l15 2q-6 -24 -10 -42t-4 -33t-23.5 -23t-45.5 -8q-34 0 -34 37q0 62 28.5 102.5t71.5 40.5zM293 700h15q-31 -39 -35 -79l23 3l15 2q-6 -19 -10 -39t-5 -36q0 -15 -22 -23t-47 -8q-34 0 -34 37q0 62 28.5 102.5t71.5 40.5z" />
    <glyph glyph-name="quotedblright" unicode="&#x201d;" horiz-adv-x="364" 
d="M334 520h-15q31 39 35 79l-23 -3l-15 -2q7 25 11 40.5t4 34.5q0 15 24 23t45 8q34 0 34 -37q0 -62 -28.5 -102.5t-71.5 -40.5zM180 520h-15q18 22 26 39.5t10 39.5l-23 -3l-15 -2q7 26 10.5 42.5t3.5 32.5q0 15 23.5 23t45.5 8q34 0 34 -37q0 -62 -28 -102.5t-72 -40.5z
" />
    <glyph glyph-name="quotedblbase" unicode="&#x201e;" horiz-adv-x="364" 
d="M173 -2q4 16 9.5 36t5.5 39q0 15 24 23t45 8q34 0 34 -37q0 -62 -28.5 -102.5t-71.5 -40.5l-15 1q31 37 35 79l-23 -4l-8 -1zM20 -2q7 26 9.5 40.5t4.5 34.5q0 15 23.5 23t45.5 8q34 0 34 -37q0 -62 -28 -102.5t-72 -40.5l-15 1q18 21 26 38t10 41l-23 -4l-9 -1z" />
    <glyph glyph-name="dagger" unicode="&#x2020;" horiz-adv-x="480" 
d="M186 372h-36l-28 1l-67 3q-21 0 -52 -21q21 80 43.5 93.5t46.5 15.5t111 2q29 148 65 242l15 -11q35 -25 42.5 -36t7.5 -35q0 -16 -12 -111l-6 -53h33l88 -2q31 0 64 13l-17 -45q-13 -37 -32.5 -49.5t-63.5 -12.5l-24 1h-22l-21 1l-21 1q-5 -23 -15.5 -82t-24.5 -141.5
t-23 -121.5t-45 -190q-35 7 -50 25t-15 52q0 13 1.5 33.5t9 90t15 116t13.5 89.5l14 89l2 14l2 15z" />
    <glyph glyph-name="daggerdbl" unicode="&#x2021;" horiz-adv-x="482" 
d="M152 503h70q6 32 12 57t16 63.5t15.5 54t11.5 29.5q29 -16 44.5 -32.5t18.5 -23t3 -22.5q0 -21 -4 -58.5t-10 -71.5l69 -1q63 0 80 2t37 12q-19 -68 -41.5 -86.5t-88.5 -18.5l-69 1l-7 -38.5t-11 -48.5l31 1h47q71 0 79 1t31 11l-9 -25q-20 -54 -38.5 -68t-73.5 -14
l-84 1q-8 -65 -17 -115.5t-18.5 -97.5t-20 -90t-16.5 -63l-11 -29q-63 21 -63 70l6 82l3 27l17 132l12 86l-75 3l-37 1q-27 0 -40 -4t-36 -19q21 69 45.5 92.5t74.5 23.5l47 -2l37 -1q2 22 4.5 37.5t8.5 48.5l-70 3l-39 1q-20 0 -31 -3t-42 -16q15 68 39 88t93 20z" />
    <glyph glyph-name="bullet" unicode="&#x2022;" horiz-adv-x="667" 
d="M339 477q57 0 97 -40t40 -98q0 -57 -40 -98t-97 -41q-59 0 -99.5 40.5t-40.5 98.5q0 57 40.5 97.5t99.5 40.5z" />
    <glyph glyph-name="ellipsis" unicode="&#x2026;" horiz-adv-x="692" 
d="M113 97q54 0 54 -55q0 -27 -13.5 -42.5t-36.5 -15.5q-54 0 -54 53q0 60 50 60zM343 97q54 0 54 -55q0 -27 -13.5 -42.5t-36.5 -15.5q-54 0 -54 53q0 60 50 60zM574 97q54 0 54 -55q0 -27 -13.5 -42.5t-36.5 -15.5q-54 0 -54 53q0 60 50 60z" />
    <glyph glyph-name="perthousand" unicode="&#x2030;" horiz-adv-x="653" 
d="M148 584q27 0 45 -29.5t18 -75.5q0 -63 -26 -107t-64 -44q-28 0 -47 29t-19 71q0 59 29 107.5t64 48.5zM148 542q-14 0 -32 -38t-18 -80q0 -59 22 -59q17 0 33 43.5t16 78.5q0 55 -21 55zM99 63l20 49q50 126 66 164t59.5 142.5t71.5 179.5q37 -33 37 -57
q0 -22 -37.5 -133.5t-99 -249.5t-70.5 -150.5t-22 -12.5q-12 0 -33 25l-6 7l5 12zM346 244q28 0 46.5 -29.5t18.5 -73.5q0 -63 -26.5 -107.5t-63.5 -44.5q-29 0 -47.5 27.5t-18.5 70.5q0 60 28 108.5t63 48.5zM347 203q-8 0 -20.5 -15.5t-21.5 -45.5t-9 -57q0 -58 22 -58
q18 0 34 41.5t16 86.5q0 48 -21 48zM533 244q28 0 46.5 -29.5t18.5 -73.5q0 -63 -26.5 -107.5t-64.5 -44.5q-29 0 -47.5 27.5t-18.5 70.5q0 60 28.5 108.5t63.5 48.5zM534 203q-9 0 -21 -15.5t-21.5 -45.5t-9.5 -57q0 -58 23 -58q18 0 34 41.5t16 86.5q0 48 -21 48z" />
    <glyph glyph-name="guilsinglleft" unicode="&#x2039;" horiz-adv-x="357" 
d="M141 268l-10 -5q25 -21 61.5 -56t44 -46t7.5 -30l3 -44l1 -27q0 -16 -10 -16q-19 0 -82 66.5t-88 109.5t-25 49q0 11 32.5 40.5t74.5 60.5t78 55t47 29l8 2q11 0 11 -10q0 -7 -8.5 -29t-25 -57.5t-27 -42t-71.5 -38.5l-10 -5z" />
    <glyph glyph-name="guilsinglright" unicode="&#x203a;" horiz-adv-x="357" 
d="M215 232l11 5q-34 27 -65.5 57.5t-39 43t-10 27t-2.5 71.5q0 20 10 20t29.5 -16t49.5 -47.5t57 -67t40 -58t15 -27.5t3 -9q0 -11 -32.5 -40.5t-76.5 -61t-80.5 -56t-42.5 -27.5l-8 -2q-11 0 -11 10q0 3 4 14.5t19.5 52t28 53t80.5 47.5l11 5z" />
    <glyph glyph-name="trademark" unicode="&#x2122;" horiz-adv-x="771" 
d="M76 597l1 5l14 48l9 30q27 -7 55 -10t66 -3q35 0 49 2t47 11l-11 -38q-6 -29 -18.5 -37t-66.5 -16l31 -16q7 -4 7 -10l-11 -76l-12 -76q-4 -14 -15.5 -53.5t-28 -59t-33 -29t-28.5 -9.5q-25 0 -49.5 31t-24.5 41q0 9 19.5 26t48.5 33l-2 -14q0 -9 5 -20t11 -17l1 18
q0 67 11.5 126t30.5 102l-17 -1q-56 0 -89 12zM468 568q33 48 44 61.5t27.5 31t25.5 17.5q12 0 36.5 -13.5t24.5 -28.5q0 -11 -2.5 -24.5t-14.5 -61.5q52 76 79 102t34 26q13 0 34.5 -13t21.5 -26q0 -50 -16 -138.5t-38 -157.5q23 0 48 7l-6 -21q-12 -40 -20 -48.5
t-23 -15.5t-26 -7q-26 0 -43 20t-17 52q0 41 14 108.5t18 82.5t10 29q-58 -54 -81 -103t-47 -167l-5 -26q-47 23 -58.5 31.5t-11.5 20.5q0 13 3.5 38t18.5 101.5t35 119.5q-65 -70 -90 -129.5t-40 -181.5q-70 23 -70 59q0 69 23 174.5t58 193.5q64 -16 64 -35q0 -29 -10 -78
z" />
    <glyph glyph-name="partialdiff" unicode="&#x2202;" 
d="M70 570l15 97q93 -11 155.5 -35.5t151 -104.5t88.5 -273q0 -119 -62 -191t-166 -72q-97 0 -161.5 64.5t-64.5 161.5q0 92 58 154t144 62q44 0 68.5 -10t62.5 -44l-12 21q-30 57 -52.5 81t-66 44.5t-74.5 29.5t-84 15zM257 341q-51 0 -86 -36t-35 -89t34 -90t82 -37t82 37
t34 90t-32 89t-79 36z" />
    <glyph glyph-name="Delta" unicode="&#x2206;" horiz-adv-x="641" 
d="M11 0l248 667h128l249 -667h-625zM170 108h305l-151 428z" />
    <glyph glyph-name="product" unicode="&#x220f;" horiz-adv-x="667" 
d="M25 750h624v-100h-72v-800h72v-100h-252v100h69v800h-258v-800h68v-100h-251v100h73v800h-73v100z" />
    <glyph glyph-name="minus" unicode="&#x2212;" 
d="M17 385h473v-63h-473v63z" />
    <glyph glyph-name="fraction" unicode="&#x2215;" horiz-adv-x="61" 
d="M-74 160l19 49l68 163q21 52 47 114.5t44 111.5q37 -34 37 -57q0 -11 -8 -39.5t-37.5 -117t-91.5 -227.5t-70.5 -150.5t-21.5 -11.5q-14 0 -33 25l-6 7z" />
    <glyph glyph-name="radical" unicode="&#x221a;" horiz-adv-x="667" 
d="M670 827v-103h-176l-195 -724h-142l-68 267h-86v103h157l32 -117q6 -21 13 -66l12 -74h7l16 83q20 97 30 133.5t30 113.5l103 384h267z" />
    <glyph glyph-name="infinity" unicode="&#x221e;" horiz-adv-x="667" 
d="M338 282q-71 -98 -162 -98q-70 0 -112.5 43.5t-42.5 113.5q0 68 43.5 111.5t111.5 43.5q90 0 159 -98q68 98 163 98q68 0 111 -44t43 -112t-43 -112t-110 -44q-93 0 -161 98zM380 340q26 -40 52 -59t55 -19q33 0 54.5 22.5t21.5 57.5q0 32 -22 54t-55 22q-44 0 -82 -45
l-18 -23zM293 340q-27 40 -53 59t-54 19q-33 0 -54.5 -22.5t-21.5 -57.5q0 -32 22 -54t55 -22q44 0 82 45l17 22z" />
    <glyph glyph-name="integral" unicode="&#x222b;" 
d="M65 -240l22 117q21 -10 41 -10q21 0 35 9t18 22.5t5 23.5t1 32v50v470v82q0 49 8 79t41.5 72.5t126.5 42.5q19 0 36 -2t43 -8l-22 -117q-24 10 -41 10q-36 0 -47.5 -19.5t-11.5 -78.5v-505v-42q0 -71 -1 -85t-19.5 -82.5t-170.5 -68.5q-40 0 -64 8z" />
    <glyph glyph-name="approxequal" unicode="&#x2248;" 
d="M77 348l-65 45q54 130 145 130q22 0 43.5 -6.5t64.5 -26t59 -25t28 -5.5q24 0 39 11t38 47l65 -46q-28 -69 -64 -98.5t-91 -29.5q-18 0 -34 5t-31.5 12t-55.5 25.5t-66 18.5q-21 0 -37.5 -12.5t-37.5 -44.5zM77 144l-65 45q54 130 145 130q21 0 42.5 -6.5t65 -26
t59.5 -25t28 -5.5q24 0 38.5 11t38.5 47l65 -46q-28 -69 -64 -98.5t-91 -29.5q-21 0 -37.5 6t-70 30.5t-80.5 24.5q-20 0 -36.5 -12.5t-37.5 -44.5z" />
    <glyph glyph-name="notequal" unicode="&#x2260;" 
d="M265 467l66 128l83 -43l-45 -85h102v-109h-146l-43 -83h188v-109h-229l-60 -116l-83 43l39 73h-100v109h140l44 83h-184v109h228z" />
    <glyph glyph-name="lessequal" unicode="&#x2264;" 
d="M470 631v-123l-291 -100l291 -99v-123l-433 168v110zM470 159v-115h-433v115h433z" />
    <glyph glyph-name="greaterequal" unicode="&#x2265;" 
d="M37 186v123l290 99l-290 100v123l433 -167v-110zM37 44v115h433v-115h-433z" />
    <glyph glyph-name="lozenge" unicode="&#x25ca;" horiz-adv-x="667" 
d="M337 693l259 -359l-259 -360l-260 360zM337 604l-197 -270l197 -271l197 271z" />
    <glyph glyph-name="apple" unicode="&#xf000;" horiz-adv-x="667" 
d="M484 691v-10q0 -65 -45 -114t-104 -49q0 72 40 118t109 55zM627 457q-43 -33 -62 -66t-19 -73q0 -51 26 -90t74 -59q-39 -95 -83.5 -145.5t-88.5 -50.5q-16 0 -36 8.5t-35.5 15t-44.5 6.5q-30 0 -40.5 -3.5t-40.5 -15.5t-47 -12q-66 0 -130 111t-64 224q0 97 52 158
t135 61q34 0 72.5 -15t51.5 -15q18 0 49 12t49 16t41 4q87 0 141 -71z" />
    <glyph glyph-name="fi" unicode="&#xf001;" horiz-adv-x="602" 
d="M86 338h7l9 -1q29 126 46.5 184.5t39 116.5t32.5 58q7 0 24.5 -11t38.5 -29t21 -73q0 -35 -16.5 -92t-38 -107t-32 -74.5t-19.5 -51.5q19 -20 28 -20q11 0 29.5 13.5t44.5 40.5q-5 -47 -26.5 -112.5t-67.5 -65.5q-9 0 -15.5 2t-20.5 9l1 -38q0 -38 -5 -96.5t-11.5 -99.5
t-20.5 -89q-102 50 -102 97q0 46 10 126t26 161l-20 14q-17 11 -20.5 16.5t-3.5 23.5q0 44 7 59t24 26t31 13zM534 122q-20 -83 -38 -107t-62 -24q-71 0 -71 84q0 61 30.5 173t68.5 186q20 -10 29 -15.5t24.5 -17t18.5 -16.5t3 -14t-1 -17t-12.5 -66.5t-17 -84t-25.5 -92.5
q20 2 29 4t24 7zM522 616q24 0 38.5 -15.5t14.5 -42.5q0 -26 -16 -44t-40 -18t-40 15t-16 40q0 29 16 47t43 18z" />
    <glyph glyph-name="fl" unicode="&#xf002;" horiz-adv-x="598" 
d="M86 338h7l9 -1q29 126 46.5 184.5t39 116.5t32.5 58q7 0 24.5 -11t38.5 -29t21 -73q0 -35 -16.5 -92t-38 -107t-32 -74.5t-19.5 -51.5q19 -20 28 -20q11 0 29.5 13.5t44.5 40.5q-5 -47 -26.5 -112.5t-67.5 -65.5q-9 0 -15.5 2t-20.5 9l1 -38q0 -38 -5 -96.5t-11.5 -99.5
t-20.5 -89q-102 50 -102 97q0 46 10 126t26 161l-20 14q-17 11 -20.5 16.5t-3.5 23.5q0 44 7 59t24 26t31 13zM508 312l-12 -33q-15 -39 -18.5 -66t-3.5 -109l23 -1q18 0 28.5 2t37.5 8q-18 -67 -29.5 -87t-33 -28t-42.5 -8q-22 0 -46 13t-41 36t-17 82q0 70 17 174.5
t39.5 184t38.5 118.5t47 91l24 -19q35 -27 47 -48t12 -54q0 -30 -8 -65.5t-28 -94.5l-10 -30l-12 -33z" />
    </font>
</defs>
</svg>
